<svg width="1918" height="290" viewBox="0 0 1918 290" fill="none" xmlns="http://www.w3.org/2000/svg">
<rect width="1919" height="290" fill="#F60030"/>
<path d="M724.3 228.4C726.016 228.4 727.432 229.012 728.548 230.236C729.676 231.448 730.24 232.936 730.24 234.7C730.24 236.464 729.676 237.958 728.548 239.182C727.432 240.394 726.016 241 724.3 241H719.44V228.4H724.3ZM724.3 239.812C725.68 239.812 726.808 239.32 727.684 238.336C728.572 237.352 729.016 236.14 729.016 234.7C729.016 233.26 728.572 232.048 727.684 231.064C726.808 230.08 725.68 229.588 724.3 229.588H720.7V239.812H724.3ZM736.373 231.784C737.705 231.784 738.779 232.258 739.595 233.206C740.423 234.142 740.837 235.252 740.837 236.536C740.837 236.668 740.825 236.854 740.801 237.094H732.899C733.019 238.006 733.403 238.732 734.051 239.272C734.711 239.8 735.521 240.064 736.481 240.064C737.165 240.064 737.753 239.926 738.245 239.65C738.749 239.362 739.127 238.99 739.379 238.534L740.423 239.146C740.027 239.782 739.487 240.286 738.803 240.658C738.119 241.03 737.339 241.216 736.463 241.216C735.047 241.216 733.895 240.772 733.007 239.884C732.119 238.996 731.675 237.868 731.675 236.5C731.675 235.156 732.113 234.034 732.989 233.134C733.865 232.234 734.993 231.784 736.373 231.784ZM736.373 232.936C735.437 232.936 734.651 233.218 734.015 233.782C733.391 234.334 733.019 235.054 732.899 235.942H739.613C739.493 234.994 739.127 234.256 738.515 233.728C737.903 233.2 737.189 232.936 736.373 232.936ZM743.311 234.358C743.311 234.766 743.491 235.09 743.851 235.33C744.211 235.57 744.649 235.756 745.165 235.888C745.681 236.02 746.197 236.17 746.713 236.338C747.229 236.494 747.667 236.764 748.027 237.148C748.387 237.52 748.567 238.012 748.567 238.624C748.567 239.392 748.261 240.016 747.649 240.496C747.049 240.976 746.269 241.216 745.309 241.216C744.445 241.216 743.707 241.024 743.095 240.64C742.495 240.256 742.075 239.758 741.835 239.146L742.843 238.552C743.011 239.02 743.311 239.392 743.743 239.668C744.187 239.932 744.709 240.064 745.309 240.064C745.897 240.064 746.389 239.95 746.785 239.722C747.181 239.482 747.379 239.116 747.379 238.624C747.379 238.216 747.199 237.892 746.839 237.652C746.479 237.412 746.041 237.226 745.525 237.094C745.009 236.962 744.493 236.818 743.977 236.662C743.461 236.494 743.023 236.224 742.663 235.852C742.303 235.468 742.123 234.97 742.123 234.358C742.123 233.626 742.411 233.014 742.987 232.522C743.575 232.03 744.313 231.784 745.201 231.784C745.933 231.784 746.575 231.952 747.127 232.288C747.679 232.612 748.087 233.056 748.351 233.62L747.361 234.196C747.013 233.356 746.293 232.936 745.201 232.936C744.685 232.936 744.241 233.062 743.869 233.314C743.497 233.554 743.311 233.902 743.311 234.358ZM751.667 229.84C751.499 230.008 751.295 230.092 751.055 230.092C750.815 230.092 750.611 230.008 750.443 229.84C750.275 229.672 750.191 229.468 750.191 229.228C750.191 228.988 750.275 228.784 750.443 228.616C750.611 228.448 750.815 228.364 751.055 228.364C751.295 228.364 751.499 228.448 751.667 228.616C751.835 228.784 751.919 228.988 751.919 229.228C751.919 229.468 751.835 229.672 751.667 229.84ZM750.461 241V232H751.649V241H750.461ZM761.91 232H763.098V240.64C763.098 241.936 762.654 242.956 761.766 243.7C760.878 244.444 759.816 244.816 758.58 244.816C756.468 244.816 755.046 244.084 754.314 242.62L755.358 242.026C755.898 243.118 756.972 243.664 758.58 243.664C759.612 243.664 760.422 243.388 761.01 242.836C761.61 242.296 761.91 241.564 761.91 240.64V239.236C761.082 240.556 759.87 241.216 758.274 241.216C756.99 241.216 755.892 240.76 754.98 239.848C754.08 238.936 753.63 237.82 753.63 236.5C753.63 235.18 754.08 234.064 754.98 233.152C755.892 232.24 756.99 231.784 758.274 231.784C759.87 231.784 761.082 232.444 761.91 233.764V232ZM755.844 239.038C756.528 239.722 757.368 240.064 758.364 240.064C759.36 240.064 760.2 239.722 760.884 239.038C761.568 238.342 761.91 237.496 761.91 236.5C761.91 235.504 761.568 234.664 760.884 233.98C760.2 233.284 759.36 232.936 758.364 232.936C757.368 232.936 756.528 233.284 755.844 233.98C755.16 234.664 754.818 235.504 754.818 236.5C754.818 237.496 755.16 238.342 755.844 239.038ZM769.826 231.784C770.918 231.784 771.776 232.12 772.4 232.792C773.036 233.452 773.354 234.346 773.354 235.474V241H772.166V235.474C772.166 234.67 771.95 234.046 771.518 233.602C771.098 233.158 770.498 232.936 769.718 232.936C768.854 232.936 768.152 233.212 767.612 233.764C767.072 234.304 766.802 235.144 766.802 236.284V241H765.614V232H766.802V233.404C767.474 232.324 768.482 231.784 769.826 231.784ZM784.975 231.784C786.259 231.784 787.351 232.24 788.251 233.152C789.163 234.064 789.619 235.18 789.619 236.5C789.619 237.82 789.163 238.936 788.251 239.848C787.351 240.76 786.259 241.216 784.975 241.216C783.379 241.216 782.167 240.556 781.339 239.236V241H780.151V228.4H781.339V233.764C782.167 232.444 783.379 231.784 784.975 231.784ZM782.365 239.038C783.049 239.722 783.889 240.064 784.885 240.064C785.881 240.064 786.721 239.722 787.405 239.038C788.089 238.342 788.431 237.496 788.431 236.5C788.431 235.504 788.089 234.664 787.405 233.98C786.721 233.284 785.881 232.936 784.885 232.936C783.889 232.936 783.049 233.284 782.365 233.98C781.681 234.664 781.339 235.504 781.339 236.5C781.339 237.496 781.681 238.342 782.365 239.038ZM797.722 232H798.982L795.13 241.828C794.782 242.716 794.284 243.412 793.636 243.916C793 244.432 792.286 244.66 791.494 244.6V243.484C792.574 243.604 793.396 242.98 793.96 241.612L794.194 241.054L790.162 232H791.422L794.806 239.542L797.722 232ZM810.93 229.984C812.202 229.984 813.33 230.296 814.314 230.92C815.298 231.532 816.03 232.3 816.51 233.224C816.99 234.148 817.23 235.12 817.23 236.14C817.23 237.412 816.972 238.366 816.456 239.002C815.94 239.638 815.334 239.956 814.638 239.956C814.134 239.956 813.702 239.83 813.342 239.578C812.982 239.314 812.742 238.924 812.622 238.408C812.106 239.056 811.44 239.38 810.624 239.38C809.796 239.38 809.1 239.104 808.536 238.552C807.984 238 807.708 237.316 807.708 236.5C807.708 235.684 807.984 235 808.536 234.448C809.1 233.896 809.796 233.62 810.624 233.62C811.392 233.62 812.028 233.908 812.532 234.484V233.746H813.648V237.634C813.648 238.786 814.038 239.362 814.818 239.362C815.346 239.362 815.79 239.104 816.15 238.588C816.51 238.06 816.69 237.244 816.69 236.14C816.69 234.532 816.132 233.188 815.016 232.108C813.912 231.028 812.55 230.488 810.93 230.488C809.262 230.488 807.84 231.064 806.664 232.216C805.5 233.368 804.918 234.796 804.918 236.5C804.918 238.24 805.518 239.68 806.718 240.82C807.918 241.948 809.43 242.512 811.254 242.512C812.466 242.512 813.51 242.338 814.386 241.99V242.53C813.486 242.854 812.442 243.016 811.254 243.016C809.286 243.016 807.648 242.398 806.34 241.162C805.032 239.938 804.378 238.384 804.378 236.5C804.378 234.688 805.002 233.152 806.25 231.892C807.51 230.62 809.07 229.984 810.93 229.984ZM809.364 237.814C809.736 238.138 810.18 238.3 810.696 238.3C811.212 238.3 811.644 238.138 811.992 237.814C812.352 237.478 812.532 237.04 812.532 236.5C812.532 235.96 812.352 235.528 811.992 235.204C811.644 234.868 811.212 234.7 810.696 234.7C810.18 234.7 809.736 234.868 809.364 235.204C809.004 235.528 808.824 235.96 808.824 236.5C808.824 237.04 809.004 237.478 809.364 237.814ZM826.949 228.4H828.137V241H826.949V239.236C826.121 240.556 824.909 241.216 823.313 241.216C822.029 241.216 820.931 240.76 820.019 239.848C819.119 238.936 818.669 237.82 818.669 236.5C818.669 235.18 819.119 234.064 820.019 233.152C820.931 232.24 822.029 231.784 823.313 231.784C824.909 231.784 826.121 232.444 826.949 233.764V228.4ZM820.883 239.038C821.567 239.722 822.407 240.064 823.403 240.064C824.399 240.064 825.239 239.722 825.923 239.038C826.607 238.342 826.949 237.496 826.949 236.5C826.949 235.504 826.607 234.664 825.923 233.98C825.239 233.284 824.399 232.936 823.403 232.936C822.407 232.936 821.567 233.284 820.883 233.98C820.199 234.664 819.857 235.504 819.857 236.5C819.857 237.496 820.199 238.342 820.883 239.038ZM840.247 231.784C841.255 231.784 842.065 232.108 842.677 232.756C843.301 233.404 843.613 234.28 843.613 235.384V241H842.425V235.384C842.425 234.604 842.221 234.004 841.813 233.584C841.417 233.152 840.889 232.936 840.229 232.936C839.485 232.936 838.879 233.188 838.411 233.692C837.955 234.184 837.727 234.958 837.727 236.014V241H836.539V235.384C836.539 234.592 836.347 233.986 835.963 233.566C835.591 233.146 835.081 232.936 834.433 232.936C833.713 232.936 833.101 233.188 832.597 233.692C832.093 234.196 831.841 234.97 831.841 236.014V241H830.653V232H831.841V233.314C832.489 232.294 833.407 231.784 834.595 231.784C835.891 231.784 836.803 232.33 837.331 233.422C837.979 232.33 838.951 231.784 840.247 231.784ZM847.116 229.84C846.948 230.008 846.744 230.092 846.504 230.092C846.264 230.092 846.06 230.008 845.892 229.84C845.724 229.672 845.64 229.468 845.64 229.228C845.64 228.988 845.724 228.784 845.892 228.616C846.06 228.448 846.264 228.364 846.504 228.364C846.744 228.364 846.948 228.448 847.116 228.616C847.284 228.784 847.368 228.988 847.368 229.228C847.368 229.468 847.284 229.672 847.116 229.84ZM845.91 241V232H847.098V241H845.91ZM854.389 233.152H851.797V238.606C851.797 239.098 851.893 239.452 852.085 239.668C852.277 239.872 852.565 239.98 852.949 239.992C853.333 239.992 853.813 239.98 854.389 239.956V241C853.129 241.192 852.181 241.102 851.545 240.73C850.921 240.358 850.609 239.65 850.609 238.606V233.152H848.719V232H850.609V229.84L851.797 229.48V232H854.389V233.152ZM857.557 233.494C858.109 232.402 859.057 231.856 860.401 231.856V233.008C859.585 233.008 858.907 233.248 858.367 233.728C857.827 234.208 857.557 234.964 857.557 235.996V241H856.369V232H857.557V233.494ZM863.236 229.84C863.068 230.008 862.864 230.092 862.624 230.092C862.384 230.092 862.18 230.008 862.012 229.84C861.844 229.672 861.76 229.468 861.76 229.228C861.76 228.988 861.844 228.784 862.012 228.616C862.18 228.448 862.384 228.364 862.624 228.364C862.864 228.364 863.068 228.448 863.236 228.616C863.404 228.784 863.488 228.988 863.488 229.228C863.488 229.468 863.404 229.672 863.236 229.84ZM862.03 241V232H863.218V241H862.03ZM872.219 232H873.479L869.627 241.828C869.279 242.716 868.781 243.412 868.133 243.916C867.497 244.432 866.783 244.66 865.991 244.6V243.484C867.071 243.604 867.893 242.98 868.457 241.612L868.691 241.054L864.659 232H865.919L869.303 239.542L872.219 232ZM878.721 231.784C880.053 231.784 881.127 232.258 881.943 233.206C882.771 234.142 883.185 235.252 883.185 236.536C883.185 236.668 883.173 236.854 883.149 237.094H875.247C875.367 238.006 875.751 238.732 876.399 239.272C877.059 239.8 877.869 240.064 878.829 240.064C879.513 240.064 880.101 239.926 880.593 239.65C881.097 239.362 881.475 238.99 881.727 238.534L882.771 239.146C882.375 239.782 881.835 240.286 881.151 240.658C880.467 241.03 879.687 241.216 878.811 241.216C877.395 241.216 876.243 240.772 875.355 239.884C874.467 238.996 874.023 237.868 874.023 236.5C874.023 235.156 874.461 234.034 875.337 233.134C876.213 232.234 877.341 231.784 878.721 231.784ZM878.721 232.936C877.785 232.936 876.999 233.218 876.363 233.782C875.739 234.334 875.367 235.054 875.247 235.942H881.961C881.841 234.994 881.475 234.256 880.863 233.728C880.251 233.2 879.537 232.936 878.721 232.936ZM889.286 231.784C890.378 231.784 891.236 232.12 891.86 232.792C892.496 233.452 892.814 234.346 892.814 235.474V241H891.626V235.474C891.626 234.67 891.41 234.046 890.978 233.602C890.558 233.158 889.958 232.936 889.178 232.936C888.314 232.936 887.612 233.212 887.072 233.764C886.532 234.304 886.262 235.144 886.262 236.284V241H885.074V228.4H886.262V233.404C886.934 232.324 887.942 231.784 889.286 231.784Z" fill="#FF91A6"/>
<path d="M320.326 241.216C318.418 241.216 316.84 240.586 315.592 239.326C314.344 238.066 313.72 236.524 313.72 234.7C313.72 232.876 314.344 231.334 315.592 230.074C316.84 228.814 318.418 228.184 320.326 228.184C321.49 228.184 322.558 228.466 323.53 229.03C324.502 229.582 325.252 230.332 325.78 231.28L324.664 231.928C324.268 231.16 323.68 230.548 322.9 230.092C322.12 229.636 321.262 229.408 320.326 229.408C318.754 229.408 317.47 229.918 316.474 230.938C315.478 231.958 314.98 233.212 314.98 234.7C314.98 236.188 315.478 237.442 316.474 238.462C317.47 239.482 318.754 239.992 320.326 239.992C321.262 239.992 322.12 239.764 322.9 239.308C323.68 238.852 324.268 238.24 324.664 237.472L325.78 238.102C325.264 239.05 324.514 239.806 323.53 240.37C322.558 240.934 321.49 241.216 320.326 241.216ZM335.126 239.866C334.214 240.766 333.098 241.216 331.778 241.216C330.458 241.216 329.336 240.766 328.412 239.866C327.5 238.954 327.044 237.832 327.044 236.5C327.044 235.168 327.5 234.052 328.412 233.152C329.336 232.24 330.458 231.784 331.778 231.784C333.098 231.784 334.214 232.24 335.126 233.152C336.05 234.052 336.512 235.168 336.512 236.5C336.512 237.832 336.05 238.954 335.126 239.866ZM329.258 239.038C329.942 239.722 330.782 240.064 331.778 240.064C332.774 240.064 333.614 239.722 334.298 239.038C334.982 238.342 335.324 237.496 335.324 236.5C335.324 235.504 334.982 234.664 334.298 233.98C333.614 233.284 332.774 232.936 331.778 232.936C330.782 232.936 329.942 233.284 329.258 233.98C328.574 234.664 328.232 235.504 328.232 236.5C328.232 237.496 328.574 238.342 329.258 239.038ZM343.324 231.784C344.608 231.784 345.7 232.24 346.6 233.152C347.512 234.064 347.968 235.18 347.968 236.5C347.968 237.82 347.512 238.936 346.6 239.848C345.7 240.76 344.608 241.216 343.324 241.216C341.728 241.216 340.516 240.556 339.688 239.236V244.6H338.5V232H339.688V233.764C340.516 232.444 341.728 231.784 343.324 231.784ZM340.714 239.038C341.398 239.722 342.238 240.064 343.234 240.064C344.23 240.064 345.07 239.722 345.754 239.038C346.438 238.342 346.78 237.496 346.78 236.5C346.78 235.504 346.438 234.664 345.754 233.98C345.07 233.284 344.23 232.936 343.234 232.936C342.238 232.936 341.398 233.284 340.714 233.98C340.03 234.664 339.688 235.504 339.688 236.5C339.688 237.496 340.03 238.342 340.714 239.038ZM356.072 232H357.332L353.48 241.828C353.132 242.716 352.634 243.412 351.986 243.916C351.35 244.432 350.636 244.66 349.844 244.6V243.484C350.924 243.604 351.746 242.98 352.31 241.612L352.544 241.054L348.512 232H349.772L353.156 239.542L356.072 232ZM359.956 233.494C360.508 232.402 361.456 231.856 362.8 231.856V233.008C361.984 233.008 361.306 233.248 360.766 233.728C360.226 234.208 359.956 234.964 359.956 235.996V241H358.768V232H359.956V233.494ZM365.634 229.84C365.466 230.008 365.262 230.092 365.022 230.092C364.782 230.092 364.578 230.008 364.41 229.84C364.242 229.672 364.158 229.468 364.158 229.228C364.158 228.988 364.242 228.784 364.41 228.616C364.578 228.448 364.782 228.364 365.022 228.364C365.262 228.364 365.466 228.448 365.634 228.616C365.802 228.784 365.886 228.988 365.886 229.228C365.886 229.468 365.802 229.672 365.634 229.84ZM364.428 241V232H365.616V241H364.428ZM375.877 232H377.065V240.64C377.065 241.936 376.621 242.956 375.733 243.7C374.845 244.444 373.783 244.816 372.547 244.816C370.435 244.816 369.013 244.084 368.281 242.62L369.325 242.026C369.865 243.118 370.939 243.664 372.547 243.664C373.579 243.664 374.389 243.388 374.977 242.836C375.577 242.296 375.877 241.564 375.877 240.64V239.236C375.049 240.556 373.837 241.216 372.241 241.216C370.957 241.216 369.859 240.76 368.947 239.848C368.047 238.936 367.597 237.82 367.597 236.5C367.597 235.18 368.047 234.064 368.947 233.152C369.859 232.24 370.957 231.784 372.241 231.784C373.837 231.784 375.049 232.444 375.877 233.764V232ZM369.811 239.038C370.495 239.722 371.335 240.064 372.331 240.064C373.327 240.064 374.167 239.722 374.851 239.038C375.535 238.342 375.877 237.496 375.877 236.5C375.877 235.504 375.535 234.664 374.851 233.98C374.167 233.284 373.327 232.936 372.331 232.936C371.335 232.936 370.495 233.284 369.811 233.98C369.127 234.664 368.785 235.504 368.785 236.5C368.785 237.496 369.127 238.342 369.811 239.038ZM383.792 231.784C384.884 231.784 385.742 232.12 386.366 232.792C387.002 233.452 387.32 234.346 387.32 235.474V241H386.132V235.474C386.132 234.67 385.916 234.046 385.484 233.602C385.064 233.158 384.464 232.936 383.684 232.936C382.82 232.936 382.118 233.212 381.578 233.764C381.038 234.304 380.768 235.144 380.768 236.284V241H379.58V228.4H380.768V233.404C381.44 232.324 382.448 231.784 383.792 231.784ZM394.387 233.152H391.795V238.606C391.795 239.098 391.891 239.452 392.083 239.668C392.275 239.872 392.563 239.98 392.947 239.992C393.331 239.992 393.811 239.98 394.387 239.956V241C393.127 241.192 392.179 241.102 391.543 240.73C390.919 240.358 390.607 239.65 390.607 238.606V233.152H388.717V232H390.607V229.84L391.795 229.48V232H394.387V233.152ZM411.451 239.308C410.179 240.58 408.643 241.216 406.843 241.216C405.043 241.216 403.507 240.58 402.235 239.308C400.963 238.036 400.327 236.5 400.327 234.7C400.327 232.9 400.963 231.364 402.235 230.092C403.507 228.82 405.043 228.184 406.843 228.184C408.643 228.184 410.179 228.82 411.451 230.092C412.723 231.364 413.359 232.9 413.359 234.7C413.359 236.5 412.723 238.036 411.451 239.308ZM402.613 238.966C403.789 240.13 405.199 240.712 406.843 240.712C408.487 240.712 409.891 240.13 411.055 238.966C412.231 237.79 412.819 236.368 412.819 234.7C412.819 233.032 412.231 231.616 411.055 230.452C409.891 229.276 408.487 228.688 406.843 228.688C405.199 228.688 403.789 229.276 402.613 230.452C401.449 231.616 400.867 233.032 400.867 234.7C400.867 236.368 401.449 237.79 402.613 238.966ZM406.897 238.156C405.913 238.156 405.085 237.82 404.413 237.148C403.741 236.476 403.405 235.66 403.405 234.7C403.405 233.74 403.741 232.924 404.413 232.252C405.085 231.58 405.913 231.244 406.897 231.244C407.533 231.244 408.109 231.394 408.625 231.694C409.153 231.994 409.561 232.402 409.849 232.918L408.859 233.494C408.691 233.122 408.427 232.84 408.067 232.648C407.707 232.456 407.317 232.36 406.897 232.36C406.201 232.36 405.637 232.594 405.205 233.062C404.785 233.518 404.575 234.064 404.575 234.7C404.575 235.336 404.785 235.888 405.205 236.356C405.637 236.812 406.201 237.04 406.897 237.04C407.329 237.04 407.725 236.944 408.085 236.752C408.445 236.548 408.709 236.26 408.877 235.888L409.867 236.482C409.579 236.998 409.171 237.406 408.643 237.706C408.115 238.006 407.533 238.156 406.897 238.156ZM419.294 241V239.866L423.83 235.294C425.126 233.998 425.774 232.888 425.774 231.964C425.774 231.16 425.522 230.536 425.018 230.092C424.526 229.636 423.932 229.408 423.236 229.408C421.94 229.408 420.998 230.002 420.41 231.19L419.348 230.56C419.744 229.78 420.284 229.192 420.968 228.796C421.652 228.388 422.408 228.184 423.236 228.184C424.244 228.184 425.126 228.526 425.882 229.21C426.65 229.882 427.034 230.8 427.034 231.964C427.034 232.696 426.83 233.398 426.422 234.07C426.014 234.742 425.438 235.45 424.694 236.194L421.094 239.776H427.304V241H419.294ZM437.035 239.452C436.207 240.628 435.037 241.216 433.525 241.216C432.013 241.216 430.837 240.628 429.997 239.452C429.169 238.264 428.755 236.68 428.755 234.7C428.755 232.72 429.169 231.142 429.997 229.966C430.837 228.778 432.013 228.184 433.525 228.184C435.037 228.184 436.207 228.778 437.035 229.966C437.875 231.142 438.295 232.72 438.295 234.7C438.295 236.68 437.875 238.264 437.035 239.452ZM430.933 238.606C431.557 239.53 432.421 239.992 433.525 239.992C434.629 239.992 435.487 239.53 436.099 238.606C436.723 237.682 437.035 236.38 437.035 234.7C437.035 233.02 436.723 231.718 436.099 230.794C435.487 229.87 434.629 229.408 433.525 229.408C432.421 229.408 431.557 229.87 430.933 230.794C430.321 231.718 430.015 233.02 430.015 234.7C430.015 236.38 430.321 237.682 430.933 238.606ZM439.738 241V239.866L444.274 235.294C445.57 233.998 446.218 232.888 446.218 231.964C446.218 231.16 445.966 230.536 445.462 230.092C444.97 229.636 444.376 229.408 443.68 229.408C442.384 229.408 441.442 230.002 440.854 231.19L439.792 230.56C440.188 229.78 440.728 229.192 441.412 228.796C442.096 228.388 442.852 228.184 443.68 228.184C444.688 228.184 445.57 228.526 446.326 229.21C447.094 229.882 447.478 230.8 447.478 231.964C447.478 232.696 447.274 233.398 446.866 234.07C446.458 234.742 445.882 235.45 445.138 236.194L441.538 239.776H447.748V241H439.738ZM449.195 241V239.866L453.731 235.294C455.027 233.998 455.675 232.888 455.675 231.964C455.675 231.16 455.423 230.536 454.919 230.092C454.427 229.636 453.833 229.408 453.137 229.408C451.841 229.408 450.899 230.002 450.311 231.19L449.249 230.56C449.645 229.78 450.185 229.192 450.869 228.796C451.553 228.388 452.309 228.184 453.137 228.184C454.145 228.184 455.027 228.526 455.783 229.21C456.551 229.882 456.935 230.8 456.935 231.964C456.935 232.696 456.731 233.398 456.323 234.07C455.915 234.742 455.339 235.45 454.595 236.194L450.995 239.776H457.205V241H449.195ZM462.792 228.4H470.532V229.588L465.78 241H464.466L469.218 229.588H462.792V228.4ZM474.856 228.4H475.936V241H474.676V229.786L471.85 230.632L471.526 229.552L474.856 228.4ZM477.733 228.4H485.473V229.588L480.721 241H479.407L484.159 229.588H477.733V228.4ZM492.978 241.216C491.07 241.216 489.492 240.586 488.244 239.326C486.996 238.066 486.372 236.524 486.372 234.7C486.372 232.876 486.996 231.334 488.244 230.074C489.492 228.814 491.07 228.184 492.978 228.184C494.142 228.184 495.21 228.466 496.182 229.03C497.154 229.582 497.904 230.332 498.432 231.28L497.316 231.928C496.92 231.16 496.332 230.548 495.552 230.092C494.772 229.636 493.914 229.408 492.978 229.408C491.406 229.408 490.122 229.918 489.126 230.938C488.13 231.958 487.632 233.212 487.632 234.7C487.632 236.188 488.13 237.442 489.126 238.462C490.122 239.482 491.406 239.992 492.978 239.992C493.914 239.992 494.772 239.764 495.552 239.308C496.332 238.852 496.92 238.24 497.316 237.472L498.432 238.102C497.916 239.05 497.166 239.806 496.182 240.37C495.21 240.934 494.142 241.216 492.978 241.216ZM506.66 232H507.848V241H506.66V239.596C505.988 240.676 504.98 241.216 503.636 241.216C502.544 241.216 501.68 240.886 501.044 240.226C500.42 239.554 500.108 238.654 500.108 237.526V232H501.296V237.526C501.296 238.33 501.506 238.954 501.926 239.398C502.358 239.842 502.964 240.064 503.744 240.064C504.608 240.064 505.31 239.794 505.85 239.254C506.39 238.702 506.66 237.856 506.66 236.716V232ZM511.298 234.358C511.298 234.766 511.478 235.09 511.838 235.33C512.198 235.57 512.636 235.756 513.152 235.888C513.668 236.02 514.184 236.17 514.7 236.338C515.216 236.494 515.654 236.764 516.014 237.148C516.374 237.52 516.554 238.012 516.554 238.624C516.554 239.392 516.248 240.016 515.636 240.496C515.036 240.976 514.256 241.216 513.296 241.216C512.432 241.216 511.694 241.024 511.082 240.64C510.482 240.256 510.062 239.758 509.822 239.146L510.83 238.552C510.998 239.02 511.298 239.392 511.73 239.668C512.174 239.932 512.696 240.064 513.296 240.064C513.884 240.064 514.376 239.95 514.772 239.722C515.168 239.482 515.366 239.116 515.366 238.624C515.366 238.216 515.186 237.892 514.826 237.652C514.466 237.412 514.028 237.226 513.512 237.094C512.996 236.962 512.48 236.818 511.964 236.662C511.448 236.494 511.01 236.224 510.65 235.852C510.29 235.468 510.11 234.97 510.11 234.358C510.11 233.626 510.398 233.014 510.974 232.522C511.562 232.03 512.3 231.784 513.188 231.784C513.92 231.784 514.562 231.952 515.114 232.288C515.666 232.612 516.074 233.056 516.338 233.62L515.348 234.196C515 233.356 514.28 232.936 513.188 232.936C512.672 232.936 512.228 233.062 511.856 233.314C511.484 233.554 511.298 233.902 511.298 234.358ZM522.954 233.152H520.362V238.606C520.362 239.098 520.458 239.452 520.65 239.668C520.842 239.872 521.13 239.98 521.514 239.992C521.898 239.992 522.378 239.98 522.954 239.956V241C521.694 241.192 520.746 241.102 520.11 240.73C519.486 240.358 519.174 239.65 519.174 238.606V233.152H517.284V232H519.174V229.84L520.362 229.48V232H522.954V233.152ZM531.931 239.866C531.019 240.766 529.903 241.216 528.583 241.216C527.263 241.216 526.141 240.766 525.217 239.866C524.305 238.954 523.849 237.832 523.849 236.5C523.849 235.168 524.305 234.052 525.217 233.152C526.141 232.24 527.263 231.784 528.583 231.784C529.903 231.784 531.019 232.24 531.931 233.152C532.855 234.052 533.317 235.168 533.317 236.5C533.317 237.832 532.855 238.954 531.931 239.866ZM526.063 239.038C526.747 239.722 527.587 240.064 528.583 240.064C529.579 240.064 530.419 239.722 531.103 239.038C531.787 238.342 532.129 237.496 532.129 236.5C532.129 235.504 531.787 234.664 531.103 233.98C530.419 233.284 529.579 232.936 528.583 232.936C527.587 232.936 526.747 233.284 526.063 233.98C525.379 234.664 525.037 235.504 525.037 236.5C525.037 237.496 525.379 238.342 526.063 239.038ZM544.899 231.784C545.907 231.784 546.717 232.108 547.329 232.756C547.953 233.404 548.265 234.28 548.265 235.384V241H547.077V235.384C547.077 234.604 546.873 234.004 546.465 233.584C546.069 233.152 545.541 232.936 544.881 232.936C544.137 232.936 543.531 233.188 543.063 233.692C542.607 234.184 542.379 234.958 542.379 236.014V241H541.191V235.384C541.191 234.592 540.999 233.986 540.615 233.566C540.243 233.146 539.733 232.936 539.085 232.936C538.365 232.936 537.753 233.188 537.249 233.692C536.745 234.196 536.493 234.97 536.493 236.014V241H535.305V232H536.493V233.314C537.141 232.294 538.059 231.784 539.247 231.784C540.543 231.784 541.455 232.33 541.983 233.422C542.631 232.33 543.603 231.784 544.899 231.784ZM551.499 234.358C551.499 234.766 551.679 235.09 552.039 235.33C552.399 235.57 552.837 235.756 553.353 235.888C553.869 236.02 554.385 236.17 554.901 236.338C555.417 236.494 555.855 236.764 556.215 237.148C556.575 237.52 556.755 238.012 556.755 238.624C556.755 239.392 556.449 240.016 555.837 240.496C555.237 240.976 554.457 241.216 553.497 241.216C552.633 241.216 551.895 241.024 551.283 240.64C550.683 240.256 550.263 239.758 550.023 239.146L551.031 238.552C551.199 239.02 551.499 239.392 551.931 239.668C552.375 239.932 552.897 240.064 553.497 240.064C554.085 240.064 554.577 239.95 554.973 239.722C555.369 239.482 555.567 239.116 555.567 238.624C555.567 238.216 555.387 237.892 555.027 237.652C554.667 237.412 554.229 237.226 553.713 237.094C553.197 236.962 552.681 236.818 552.165 236.662C551.649 236.494 551.211 236.224 550.851 235.852C550.491 235.468 550.311 234.97 550.311 234.358C550.311 233.626 550.599 233.014 551.175 232.522C551.763 232.03 552.501 231.784 553.389 231.784C554.121 231.784 554.763 231.952 555.315 232.288C555.867 232.612 556.275 233.056 556.539 233.62L555.549 234.196C555.201 233.356 554.481 232.936 553.389 232.936C552.873 232.936 552.429 233.062 552.057 233.314C551.685 233.554 551.499 233.902 551.499 234.358ZM560.073 240.892C559.881 241.084 559.647 241.18 559.371 241.18C559.095 241.18 558.861 241.084 558.669 240.892C558.477 240.7 558.381 240.466 558.381 240.19C558.381 239.914 558.477 239.68 558.669 239.488C558.861 239.296 559.095 239.2 559.371 239.2C559.647 239.2 559.881 239.296 560.073 239.488C560.265 239.68 560.361 239.914 560.361 240.19C560.361 240.466 560.265 240.7 560.073 240.892ZM575.777 241L574.607 237.904H568.631L567.461 241H566.129L570.971 228.4H572.267L577.109 241H575.777ZM569.081 236.716H574.157L571.619 229.966L569.081 236.716ZM578.547 241V227.86H579.735V241H578.547ZM582.256 241V227.86H583.444V241H582.256ZM591.653 233.494C592.205 232.402 593.153 231.856 594.497 231.856V233.008C593.681 233.008 593.003 233.248 592.463 233.728C591.923 234.208 591.653 234.964 591.653 235.996V241H590.465V232H591.653V233.494ZM597.331 229.84C597.163 230.008 596.959 230.092 596.719 230.092C596.479 230.092 596.275 230.008 596.107 229.84C595.939 229.672 595.855 229.468 595.855 229.228C595.855 228.988 595.939 228.784 596.107 228.616C596.275 228.448 596.479 228.364 596.719 228.364C596.959 228.364 597.163 228.448 597.331 228.616C597.499 228.784 597.583 228.988 597.583 229.228C597.583 229.468 597.499 229.672 597.331 229.84ZM596.125 241V232H597.313V241H596.125ZM607.574 232H608.762V240.64C608.762 241.936 608.318 242.956 607.43 243.7C606.542 244.444 605.48 244.816 604.244 244.816C602.132 244.816 600.71 244.084 599.978 242.62L601.022 242.026C601.562 243.118 602.636 243.664 604.244 243.664C605.276 243.664 606.086 243.388 606.674 242.836C607.274 242.296 607.574 241.564 607.574 240.64V239.236C606.746 240.556 605.534 241.216 603.938 241.216C602.654 241.216 601.556 240.76 600.644 239.848C599.744 238.936 599.294 237.82 599.294 236.5C599.294 235.18 599.744 234.064 600.644 233.152C601.556 232.24 602.654 231.784 603.938 231.784C605.534 231.784 606.746 232.444 607.574 233.764V232ZM601.508 239.038C602.192 239.722 603.032 240.064 604.028 240.064C605.024 240.064 605.864 239.722 606.548 239.038C607.232 238.342 607.574 237.496 607.574 236.5C607.574 235.504 607.232 234.664 606.548 233.98C605.864 233.284 605.024 232.936 604.028 232.936C603.032 232.936 602.192 233.284 601.508 233.98C600.824 234.664 600.482 235.504 600.482 236.5C600.482 237.496 600.824 238.342 601.508 239.038ZM615.49 231.784C616.582 231.784 617.44 232.12 618.064 232.792C618.7 233.452 619.018 234.346 619.018 235.474V241H617.83V235.474C617.83 234.67 617.614 234.046 617.182 233.602C616.762 233.158 616.162 232.936 615.382 232.936C614.518 232.936 613.816 233.212 613.276 233.764C612.736 234.304 612.466 235.144 612.466 236.284V241H611.278V228.4H612.466V233.404C613.138 232.324 614.146 231.784 615.49 231.784ZM626.085 233.152H623.493V238.606C623.493 239.098 623.589 239.452 623.781 239.668C623.973 239.872 624.261 239.98 624.645 239.992C625.029 239.992 625.509 239.98 626.085 239.956V241C624.825 241.192 623.877 241.102 623.241 240.73C622.617 240.358 622.305 239.65 622.305 238.606V233.152H620.415V232H622.305V229.84L623.493 229.48V232H626.085V233.152ZM633.753 233.494C634.305 232.402 635.253 231.856 636.597 231.856V233.008C635.781 233.008 635.103 233.248 634.563 233.728C634.023 234.208 633.753 234.964 633.753 235.996V241H632.565V232H633.753V233.494ZM641.838 231.784C643.17 231.784 644.244 232.258 645.06 233.206C645.888 234.142 646.302 235.252 646.302 236.536C646.302 236.668 646.29 236.854 646.266 237.094H638.364C638.484 238.006 638.868 238.732 639.516 239.272C640.176 239.8 640.986 240.064 641.946 240.064C642.63 240.064 643.218 239.926 643.71 239.65C644.214 239.362 644.592 238.99 644.844 238.534L645.888 239.146C645.492 239.782 644.952 240.286 644.268 240.658C643.584 241.03 642.804 241.216 641.928 241.216C640.512 241.216 639.36 240.772 638.472 239.884C637.584 238.996 637.14 237.868 637.14 236.5C637.14 235.156 637.578 234.034 638.454 233.134C639.33 232.234 640.458 231.784 641.838 231.784ZM641.838 232.936C640.902 232.936 640.116 233.218 639.48 233.782C638.856 234.334 638.484 235.054 638.364 235.942H645.078C644.958 234.994 644.592 234.256 643.98 233.728C643.368 233.2 642.654 232.936 641.838 232.936ZM648.776 234.358C648.776 234.766 648.956 235.09 649.316 235.33C649.676 235.57 650.114 235.756 650.63 235.888C651.146 236.02 651.662 236.17 652.178 236.338C652.694 236.494 653.132 236.764 653.492 237.148C653.852 237.52 654.032 238.012 654.032 238.624C654.032 239.392 653.726 240.016 653.114 240.496C652.514 240.976 651.734 241.216 650.774 241.216C649.91 241.216 649.172 241.024 648.56 240.64C647.96 240.256 647.54 239.758 647.3 239.146L648.308 238.552C648.476 239.02 648.776 239.392 649.208 239.668C649.652 239.932 650.174 240.064 650.774 240.064C651.362 240.064 651.854 239.95 652.25 239.722C652.646 239.482 652.844 239.116 652.844 238.624C652.844 238.216 652.664 237.892 652.304 237.652C651.944 237.412 651.506 237.226 650.99 237.094C650.474 236.962 649.958 236.818 649.442 236.662C648.926 236.494 648.488 236.224 648.128 235.852C647.768 235.468 647.588 234.97 647.588 234.358C647.588 233.626 647.876 233.014 648.452 232.522C649.04 232.03 649.778 231.784 650.666 231.784C651.398 231.784 652.04 231.952 652.592 232.288C653.144 232.612 653.552 233.056 653.816 233.62L652.826 234.196C652.478 233.356 651.758 232.936 650.666 232.936C650.15 232.936 649.706 233.062 649.334 233.314C648.962 233.554 648.776 233.902 648.776 234.358ZM659.908 231.784C661.24 231.784 662.314 232.258 663.13 233.206C663.958 234.142 664.372 235.252 664.372 236.536C664.372 236.668 664.36 236.854 664.336 237.094H656.434C656.554 238.006 656.938 238.732 657.586 239.272C658.246 239.8 659.056 240.064 660.016 240.064C660.7 240.064 661.288 239.926 661.78 239.65C662.284 239.362 662.662 238.99 662.914 238.534L663.958 239.146C663.562 239.782 663.022 240.286 662.338 240.658C661.654 241.03 660.874 241.216 659.998 241.216C658.582 241.216 657.43 240.772 656.542 239.884C655.654 238.996 655.21 237.868 655.21 236.5C655.21 235.156 655.648 234.034 656.524 233.134C657.4 232.234 658.528 231.784 659.908 231.784ZM659.908 232.936C658.972 232.936 658.186 233.218 657.55 233.782C656.926 234.334 656.554 235.054 656.434 235.942H663.148C663.028 234.994 662.662 234.256 662.05 233.728C661.438 233.2 660.724 232.936 659.908 232.936ZM667.45 233.494C668.002 232.402 668.95 231.856 670.294 231.856V233.008C669.478 233.008 668.8 233.248 668.26 233.728C667.72 234.208 667.45 234.964 667.45 235.996V241H666.262V232H667.45V233.494ZM678.402 232H679.662L675.972 241H674.532L670.842 232H672.102L675.252 239.758L678.402 232ZM684.904 231.784C686.236 231.784 687.31 232.258 688.126 233.206C688.954 234.142 689.368 235.252 689.368 236.536C689.368 236.668 689.356 236.854 689.332 237.094H681.43C681.55 238.006 681.934 238.732 682.582 239.272C683.242 239.8 684.052 240.064 685.012 240.064C685.696 240.064 686.284 239.926 686.776 239.65C687.28 239.362 687.658 238.99 687.91 238.534L688.954 239.146C688.558 239.782 688.018 240.286 687.334 240.658C686.65 241.03 685.87 241.216 684.994 241.216C683.578 241.216 682.426 240.772 681.538 239.884C680.65 238.996 680.206 237.868 680.206 236.5C680.206 235.156 680.644 234.034 681.52 233.134C682.396 232.234 683.524 231.784 684.904 231.784ZM684.904 232.936C683.968 232.936 683.182 233.218 682.546 233.782C681.922 234.334 681.55 235.054 681.43 235.942H688.144C688.024 234.994 687.658 234.256 687.046 233.728C686.434 233.2 685.72 232.936 684.904 232.936ZM698.998 228.4H700.186V241H698.998V239.236C698.17 240.556 696.958 241.216 695.362 241.216C694.078 241.216 692.98 240.76 692.068 239.848C691.168 238.936 690.718 237.82 690.718 236.5C690.718 235.18 691.168 234.064 692.068 233.152C692.98 232.24 694.078 231.784 695.362 231.784C696.958 231.784 698.17 232.444 698.998 233.764V228.4ZM692.932 239.038C693.616 239.722 694.456 240.064 695.452 240.064C696.448 240.064 697.288 239.722 697.972 239.038C698.656 238.342 698.998 237.496 698.998 236.5C698.998 235.504 698.656 234.664 697.972 233.98C697.288 233.284 696.448 232.936 695.452 232.936C694.456 232.936 693.616 233.284 692.932 233.98C692.248 234.664 691.906 235.504 691.906 236.5C691.906 237.496 692.248 238.342 692.932 239.038Z" fill="#FF91A6"/>
<path d="M316 70.7686L317.106 74.877L327.111 72.2075L323.622 88L328.289 86.7547L332.049 69.7066L329.41 67.1908L316 70.7686Z" fill="#EDEDED"/>
<path d="M342.951 63.5778L344.057 67.6862L354.062 65.0167L350.573 80.8092L355.241 79.5639L359 62.5158L356.361 60L342.951 63.5778Z" fill="#EDEDED"/>
<path d="M337.216 64.829L340.253 64L345 82.0467L341.507 83L337.751 68.7173L334.661 70.5831L333 67.7758L337.216 64.829Z" fill="#EDEDED"/>
<path d="M323.677 82.5563L313 89.3444L324.511 88.8477L360.546 87.6887L404.088 87.3576C412.207 87.4128 430.147 87.5563 436.953 87.6887C443.76 87.8212 455.027 88.4062 459.809 88.6821L483.665 91L485 89.1788L457.473 87.1921L430.781 85.702L405.423 84.7086L383.902 83.053C381.733 83.053 376.662 82.457 373.726 80.0728C370.055 77.0927 385.57 72.2914 389.241 71.1325C391.467 70.4293 396.074 69.1104 399.552 68.129C401.46 67.5908 403.314 66.881 405.089 66L388.573 68.3179C383.68 69.3664 371.857 72.2252 363.716 75.2715C355.575 78.3179 362.103 82.3907 366.385 84.0464L323.677 82.5563Z" fill="#EDEDED"/>
<path d="M352.182 82.7413L350.341 80.9035L348.332 82.5742H330.256C329.698 82.3515 329.687 81.505 334.106 79.9011C339.629 77.8963 364.233 69.3758 370.593 67.2039C376.953 65.032 386.493 63.1942 394.527 61.8576C402.561 60.5211 410.092 61.0223 415.114 61.5235C420.135 62.0247 427.834 63.5283 434.529 65.5332C441.224 67.538 445.91 69.877 451.601 72.7171C456.153 74.9893 463.763 80.1239 466.999 82.4071C467.557 82.5742 470.547 83.0754 478.045 83.7437C485.544 84.412 495.117 86.027 498.967 86.7509C503.151 87.6977 512.725 89.9587 517.545 91.4289C520.87 92.4431 524.864 94.1516 527.846 95.5344C530.03 96.5468 534.341 99.6724 532.106 98.7799C529.596 97.7775 517.88 93.9349 513.193 92.7654C508.507 91.596 500.808 89.9253 495.117 88.9228C489.427 87.9204 480.891 86.918 477.208 86.5839C474.263 86.3166 458.24 85.2473 450.596 84.7461L438.546 84.412C437.039 84.412 434.16 84.3117 434.696 83.9108C435.232 83.5098 438.601 83.1868 440.219 83.0754L447.082 82.7413L461.141 82.4071C459.3 81.1263 454.446 77.8629 449.759 75.0561C443.901 71.5476 433.524 68.7075 430.177 67.7051C426.83 66.7026 419.13 65.3661 414.444 64.8649C409.758 64.3637 404.234 64.8649 399.548 65.199C394.941 65.5275 386.615 67.3088 381.882 68.3215L381.639 68.3733C376.953 69.3757 366.408 72.7171 360.718 75.0561C356.165 76.9273 358.04 80.9592 359.546 82.7413H352.182Z" fill="#EDEDED"/>
<path d="M451.832 58.2868L452.187 62.1581L455.362 64.4012L451.484 64.7659L449.229 67.9421L448.874 64.0708L445.699 61.8277L449.577 61.463L451.832 58.2868Z" fill="#EDEDED"/>
<path d="M448.337 59.4889L450.896 63.6342L455.185 61.3238L451.027 63.8605L453.359 68.136L450.8 63.9907L446.511 66.3011L450.669 63.7644L448.337 59.4889Z" fill="#EDEDED"/>
<circle cx="407" cy="52" r="4" fill="#EDEDED"/>
<circle cx="399.5" cy="54.5" r="2.5" fill="#EDEDED"/>
<circle cx="401.5" cy="46.5" r="1.5" fill="#EDEDED"/>
<circle cx="395.5" cy="46.5" r="1.5" fill="#EDEDED"/>
<path d="M365.507 106.702C365.228 109.227 363.426 110.426 361.259 110.426C358.685 110.426 356.733 108.735 356.733 105.011C356.733 101.308 358.706 99.5957 361.259 99.5957C363.254 99.5957 364.885 100.644 365.335 102.806H369.347C368.532 98.5042 365.357 96 361.259 96C356.733 96 353 99.2319 353 105.011C353 110.918 356.733 114 361.259 114C365.335 114 368.768 111.539 369.433 106.702H365.507Z" fill="#EDEDED"/>
<path d="M381.357 96.3424V107.108C381.357 109.848 379.341 110.597 377.625 110.597C375.93 110.597 373.892 109.848 373.892 107.13V96.3424H370.503V107.044C370.503 110.854 372.691 114 377.625 114C382.645 114 384.768 110.854 384.768 107.044V96.3424H381.357Z" fill="#EDEDED"/>
<path d="M394.126 103.32C392.067 102.87 390.308 102.464 390.308 101.244C390.308 100.002 391.938 99.4673 393.054 99.4673C394.705 99.4673 396.422 100.259 396.422 101.565V101.907H400.219V101.565C400.219 98.3115 397.43 96.0214 393.44 96.0214C389.106 96.0214 386.296 98.2045 386.296 101.565C386.296 104.797 389.707 105.61 392.431 106.252C394.577 106.766 396.422 107.194 396.422 108.478C396.422 110.04 394.877 110.49 393.354 110.49C391.745 110.49 390.136 109.976 390.136 108.478V108.136H386.017V108.478C386.017 111.581 388.613 114 392.775 114C397.773 114 400.369 111.603 400.369 108.178C400.369 104.711 396.915 103.941 394.126 103.32Z" fill="#EDEDED"/>
<path d="M401.011 96.3639V99.8312H407.061V113.679H410.901V99.8312H416.95V96.3639H401.011Z" fill="#EDEDED"/>
<path d="M425.638 96C421.111 96 417.378 99.2319 417.378 105.011C417.378 110.918 421.111 114 425.638 114C430.164 114 433.918 110.939 433.918 105.011C433.918 99.3389 430.379 96 425.638 96ZM425.638 110.426C423.063 110.426 421.111 108.735 421.111 105.011C421.111 101.308 423.085 99.5957 425.638 99.5957C428.212 99.5957 430.164 101.308 430.164 105.011C430.164 108.735 428.233 110.426 425.638 110.426Z" fill="#EDEDED"/>
<path d="M449.206 96.3639L444.272 109.998L439.316 96.3639H435.304V113.679H438.951V103.748L442.834 113.679H445.709L449.592 103.769V113.679H453.239V96.3639H449.206Z" fill="#EDEDED"/>
<path d="M462.757 103.32C460.698 102.87 458.939 102.464 458.939 101.244C458.939 100.002 460.569 99.4673 461.685 99.4673C463.337 99.4673 465.053 100.259 465.053 101.565V101.907H468.85V101.565C468.85 98.3115 466.061 96.0214 462.071 96.0214C457.737 96.0214 454.927 98.2045 454.927 101.565C454.927 104.797 458.338 105.61 461.063 106.252C463.208 106.766 465.053 107.194 465.053 108.478C465.053 110.04 463.508 110.49 461.985 110.49C460.376 110.49 458.767 109.976 458.767 108.478V108.136H454.648V108.478C454.648 111.581 457.244 114 461.406 114C466.404 114 469 111.603 469 108.178C469 104.711 465.546 103.941 462.757 103.32Z" fill="#EDEDED"/>
<path d="M370.956 120.154C371.977 120.154 372.828 120.524 373.509 121.264C374.196 122.004 374.54 122.916 374.54 124C374.54 125.084 374.196 125.996 373.509 126.736C372.828 127.476 371.977 127.846 370.956 127.846H368V120.154H370.956ZM370.956 126.396C371.602 126.396 372.126 126.176 372.53 125.736C372.934 125.289 373.136 124.711 373.136 124C373.136 123.289 372.934 122.714 372.53 122.275C372.126 121.828 371.602 121.604 370.956 121.604H369.468V126.396H370.956Z" fill="#EDEDED"/>
<path d="M377.049 126.396H380.186V127.846H375.581V120.154H380.133V121.604H377.049V123.242H379.867V124.67H377.049V126.396Z" fill="#EDEDED"/>
<path d="M386.144 120.154V121.604H384.134V127.846H382.667V121.604H380.667V120.154H386.144Z" fill="#EDEDED"/>
<path d="M391.209 127.846L390.762 126.462H387.795L387.348 127.846H385.764L388.369 120.154H390.188L392.804 127.846H391.209ZM388.263 125.044H390.305L389.284 121.901L388.263 125.044Z" fill="#EDEDED"/>
<path d="M393.527 120.154H394.994V127.846H393.527V120.154Z" fill="#EDEDED"/>
<path d="M397.84 126.396H400.679V127.846H396.372V120.154H397.84V126.396Z" fill="#EDEDED"/>
<path d="M401.513 120.154H402.98V127.846H401.513V120.154Z" fill="#EDEDED"/>
<path d="M408.665 120.154H410.133V127.846H409.016L405.826 123.143V127.846H404.358V120.154H405.475L408.665 124.846V120.154Z" fill="#EDEDED"/>
<path d="M418.82 123.714V124.308C418.82 125.407 418.479 126.297 417.799 126.978C417.118 127.659 416.239 128 415.161 128C414.013 128 413.059 127.615 412.301 126.846C411.549 126.07 411.174 125.125 411.174 124.011C411.174 122.89 411.546 121.941 412.29 121.165C413.042 120.388 413.97 120 415.076 120C415.771 120 416.406 120.165 416.98 120.495C417.554 120.817 418.001 121.249 418.32 121.791L417.065 122.538C416.888 122.223 416.618 121.967 416.257 121.769C415.902 121.571 415.505 121.473 415.066 121.473C414.357 121.473 413.772 121.714 413.311 122.198C412.857 122.674 412.63 123.278 412.63 124.011C412.63 124.736 412.861 125.337 413.322 125.813C413.79 126.282 414.406 126.516 415.172 126.516C415.739 126.516 416.207 126.388 416.576 126.132C416.952 125.868 417.207 125.509 417.341 125.055H415.087V123.714H418.82Z" fill="#EDEDED"/>
<path d="M426.053 128C424.933 128 424.007 127.615 423.277 126.846C422.547 126.077 422.182 125.128 422.182 124C422.182 122.864 422.547 121.916 423.277 121.154C424.007 120.385 424.933 120 426.053 120C426.726 120 427.347 120.165 427.914 120.495C428.488 120.817 428.935 121.256 429.254 121.813L427.988 122.571C427.804 122.227 427.542 121.96 427.201 121.769C426.861 121.571 426.478 121.473 426.053 121.473C425.33 121.473 424.745 121.707 424.298 122.176C423.858 122.645 423.639 123.253 423.639 124C423.639 124.74 423.858 125.344 424.298 125.813C424.745 126.282 425.33 126.516 426.053 126.516C426.478 126.516 426.861 126.421 427.201 126.231C427.549 126.033 427.811 125.766 427.988 125.429L429.254 126.187C428.935 126.744 428.492 127.187 427.924 127.516C427.357 127.839 426.733 128 426.053 128Z" fill="#EDEDED"/>
<path d="M431.623 126.396H434.76V127.846H430.155V120.154H434.707V121.604H431.623V123.242H434.441V124.67H431.623V126.396Z" fill="#EDEDED"/>
<path d="M440.101 120.154H441.569V127.846H440.452L437.262 123.143V127.846H435.794V120.154H436.911L440.101 124.846V120.154Z" fill="#EDEDED"/>
<path d="M447.873 120.154V121.604H445.864V127.846H444.396V121.604H442.397V120.154H447.873Z" fill="#EDEDED"/>
<path d="M450.16 126.396H453.297V127.846H448.693V120.154H453.244V121.604H450.16V123.242H452.978V124.67H450.16V126.396Z" fill="#EDEDED"/>
<path d="M458.415 127.846L456.916 125.176H455.799V127.846H454.332V120.154H457.309C457.997 120.154 458.582 120.403 459.064 120.901C459.546 121.399 459.787 122 459.787 122.703C459.787 123.179 459.656 123.623 459.394 124.033C459.132 124.436 458.784 124.74 458.352 124.945L460 127.846H458.415ZM455.799 121.571V123.846H457.309C457.586 123.846 457.823 123.736 458.022 123.516C458.221 123.289 458.32 123.018 458.32 122.703C458.32 122.388 458.221 122.121 458.022 121.901C457.823 121.681 457.586 121.571 457.309 121.571H455.799Z" fill="#EDEDED"/>
<rect width="17" height="1" transform="matrix(1 0 -0.0020838 0.999998 347 123)" fill="#EDEDED"/>
<rect width="17" height="1" transform="matrix(1 0 -0.00207389 0.999998 465 123)" fill="#EDEDED"/>
<rect width="10" height="1" transform="matrix(1 0 -0.0020808 0.999998 354 126)" fill="#EDEDED"/>
<rect width="10" height="1" transform="matrix(1 0 -0.0020808 0.999998 465 126)" fill="#EDEDED"/>
<path d="M649.384 95.192C648.296 95.192 647.288 94.936 646.36 94.424C645.432 93.9013 644.696 93.1973 644.152 92.312C643.608 91.4267 643.336 90.4453 643.336 89.368C643.336 88.2907 643.608 87.3093 644.152 86.424C644.696 85.528 645.432 84.824 646.36 84.312C647.288 83.8 648.296 83.544 649.384 83.544C650.483 83.544 651.491 83.8 652.408 84.312C653.336 84.824 654.072 85.528 654.616 86.424C655.16 87.3093 655.432 88.2907 655.432 89.368C655.432 90.4347 655.16 91.416 654.616 92.312C654.072 93.1973 653.336 93.9013 652.408 94.424C651.491 94.936 650.483 95.192 649.384 95.192ZM649.384 92.936C650.024 92.936 650.611 92.7813 651.144 92.472C651.688 92.1627 652.115 91.736 652.424 91.192C652.744 90.648 652.904 90.04 652.904 89.368C652.904 88.696 652.744 88.088 652.424 87.544C652.115 87 651.688 86.5733 651.144 86.264C650.611 85.9547 650.024 85.8 649.384 85.8C648.744 85.8 648.152 85.9547 647.608 86.264C647.075 86.5733 646.648 87 646.328 87.544C646.019 88.088 645.864 88.696 645.864 89.368C645.864 90.04 646.019 90.648 646.328 91.192C646.648 91.736 647.075 92.1627 647.608 92.472C648.152 92.7813 648.744 92.936 649.384 92.936ZM668.132 83.736H670.548V95H668.132V90.408H663.236V95H660.82V83.736H663.236V88.2H668.132V83.736ZM680.587 95L679.787 93.08H674.731L673.915 95H671.435L676.379 83.736H678.283L683.179 95H680.587ZM675.563 91.08H678.939L677.259 87.08L675.563 91.08ZM688.325 95.192C687.237 95.192 686.271 94.936 685.429 94.424C684.597 93.912 683.951 93.2133 683.493 92.328C683.034 91.432 682.805 90.4453 682.805 89.368C682.805 88.28 683.034 87.2933 683.493 86.408C683.962 85.5227 684.618 84.824 685.461 84.312C686.314 83.8 687.285 83.544 688.373 83.544C689.333 83.544 690.181 83.72 690.917 84.072C691.663 84.424 692.271 84.904 692.741 85.512C693.21 86.1093 693.541 86.776 693.733 87.512L691.301 87.784C691.066 87.208 690.698 86.7333 690.197 86.36C689.706 85.9867 689.114 85.8 688.421 85.8C687.781 85.8 687.226 85.9547 686.757 86.264C686.298 86.5733 685.946 87 685.701 87.544C685.455 88.0773 685.333 88.6853 685.333 89.368C685.333 90.0507 685.45 90.664 685.685 91.208C685.93 91.7413 686.287 92.1627 686.757 92.472C687.226 92.7813 687.781 92.936 688.421 92.936C689.829 92.936 690.794 92.2693 691.317 90.936L693.717 91.192C693.535 91.9387 693.21 92.616 692.741 93.224C692.282 93.8213 691.674 94.3013 690.917 94.664C690.17 95.016 689.306 95.192 688.325 95.192Z" fill="#EDEDED"/>
<path d="M735.576 83.736L731.32 92.712C730.957 93.4693 730.477 94.0667 729.88 94.504C729.283 94.9307 728.579 95.144 727.768 95.144C727.331 95.144 726.888 95.0747 726.44 94.936L726.728 92.936C727.048 93.0213 727.373 93.064 727.704 93.064C728.045 93.064 728.381 92.9627 728.712 92.76C729.043 92.5573 729.293 92.264 729.464 91.88L724.808 83.736H727.512L730.568 89.4L733.096 83.736H735.576ZM740.465 95.192C739.377 95.192 738.412 94.936 737.569 94.424C736.737 93.912 736.092 93.2133 735.633 92.328C735.175 91.432 734.945 90.4453 734.945 89.368C734.945 88.28 735.175 87.2933 735.633 86.408C736.103 85.5227 736.759 84.824 737.601 84.312C738.455 83.8 739.425 83.544 740.513 83.544C741.473 83.544 742.321 83.72 743.057 84.072C743.804 84.424 744.412 84.904 744.881 85.512C745.351 86.1093 745.681 86.776 745.873 87.512L743.441 87.784C743.207 87.208 742.839 86.7333 742.337 86.36C741.847 85.9867 741.255 85.8 740.561 85.8C739.921 85.8 739.367 85.9547 738.897 86.264C738.439 86.5733 738.087 87 737.841 87.544C737.596 88.0773 737.473 88.6853 737.473 89.368C737.473 90.0507 737.591 90.664 737.825 91.208C738.071 91.7413 738.428 92.1627 738.897 92.472C739.367 92.7813 739.921 92.936 740.561 92.936C741.969 92.936 742.935 92.2693 743.457 90.936L745.857 91.192C745.676 91.9387 745.351 92.616 744.881 93.224C744.423 93.8213 743.815 94.3013 743.057 94.664C742.311 95.016 741.447 95.192 740.465 95.192ZM756.911 95H754.495V85.928H750.975V88.296C750.975 89.864 750.868 91.1493 750.655 92.152C750.441 93.144 750.079 93.9013 749.567 94.424C749.055 94.936 748.351 95.192 747.455 95.192C746.921 95.192 746.431 95.096 745.982 94.904L746.207 92.856C746.484 92.984 746.777 93.048 747.087 93.048C747.449 93.048 747.737 92.9467 747.951 92.744C748.164 92.5307 748.324 92.1147 748.431 91.496C748.548 90.8667 748.607 89.9387 748.607 88.712V83.736H756.911V95ZM768.482 83.736L764.226 92.712C763.864 93.4693 763.384 94.0667 762.786 94.504C762.189 94.9307 761.485 95.144 760.674 95.144C760.237 95.144 759.794 95.0747 759.346 94.936L759.634 92.936C759.954 93.0213 760.28 93.064 760.61 93.064C760.952 93.064 761.288 92.9627 761.618 92.76C761.949 92.5573 762.2 92.264 762.37 91.88L757.714 83.736H760.418L763.474 89.4L766.002 83.736H768.482ZM776.492 83.736V85.928H771.58V95H769.164V83.736H776.492ZM787.2 83.736V95H784.784V88.28L779.088 95H777.648V83.736H780.064V90.664L785.808 83.736H787.2Z" fill="#EDEDED"/>
<path d="M827.32 83.736V85.928H822.408V95H819.992V83.736H827.32ZM834.618 95L833.818 93.08H828.762L827.946 95H825.466L830.41 83.736H832.314L837.21 95H834.618ZM829.594 91.08H832.97L831.29 87.08L829.594 91.08ZM847.942 95H845.526V85.928H842.006V88.296C842.006 89.864 841.899 91.1493 841.686 92.152C841.472 93.144 841.11 93.9013 840.598 94.424C840.086 94.936 839.382 95.192 838.486 95.192C837.952 95.192 837.462 95.096 837.014 94.904L837.238 92.856C837.515 92.984 837.808 93.048 838.118 93.048C838.48 93.048 838.768 92.9467 838.982 92.744C839.195 92.5307 839.355 92.1147 839.462 91.496C839.579 90.8667 839.638 89.9387 839.638 88.712V83.736H847.942V95ZM852.346 92.808H857.802V95H849.93V83.736H857.674V85.928H852.346V88.312H857.017V90.36H852.346V92.808ZM863.993 83.736C864.74 83.736 865.406 83.9013 865.993 84.232C866.58 84.552 867.033 84.9947 867.353 85.56C867.684 86.1253 867.849 86.7547 867.849 87.448C867.849 88.1307 867.689 88.7547 867.369 89.32C867.049 89.8747 866.596 90.3173 866.009 90.648C865.422 90.968 864.75 91.128 863.993 91.128H861.705V95H859.289V83.736H863.993ZM863.673 89.08C863.993 89.08 864.276 89.0107 864.521 88.872C864.777 88.7333 864.974 88.5413 865.113 88.296C865.252 88.04 865.321 87.7573 865.321 87.448C865.321 87.1493 865.246 86.8827 865.097 86.648C864.958 86.4027 864.761 86.216 864.505 86.088C864.26 85.9493 863.982 85.88 863.673 85.88H861.705V89.08H863.673ZM871.627 92.808H877.083V95H869.211V83.736H876.955V85.928H871.627V88.312H876.299V90.36H871.627V92.808ZM887.082 95H884.65V91.08H883.05L880.442 95H877.578L880.586 90.616C879.903 90.3387 879.365 89.9173 878.97 89.352C878.586 88.7867 878.394 88.136 878.394 87.4C878.394 86.7067 878.559 86.0827 878.89 85.528C879.221 84.9627 879.679 84.5253 880.266 84.216C880.863 83.896 881.541 83.736 882.298 83.736H887.082V95ZM884.65 88.984V85.88H882.602C882.282 85.88 881.994 85.944 881.738 86.072C881.482 86.1893 881.279 86.3653 881.13 86.6C880.991 86.8347 880.922 87.1013 880.922 87.4C880.922 87.7093 880.991 87.9867 881.13 88.232C881.269 88.4667 881.466 88.6533 881.722 88.792C881.978 88.92 882.271 88.984 882.602 88.984H884.65Z" fill="#EDEDED"/>
<path d="M925.352 89.272L930.104 95H927.112L923.352 90.392H922.408V95H919.992V83.736H922.408V88.312H923.416L927.048 83.736H929.848L925.352 89.272ZM935.509 95.192C934.421 95.192 933.413 94.936 932.485 94.424C931.557 93.9013 930.821 93.1973 930.277 92.312C929.733 91.4267 929.461 90.4453 929.461 89.368C929.461 88.2907 929.733 87.3093 930.277 86.424C930.821 85.528 931.557 84.824 932.485 84.312C933.413 83.8 934.421 83.544 935.509 83.544C936.608 83.544 937.616 83.8 938.533 84.312C939.461 84.824 940.197 85.528 940.741 86.424C941.285 87.3093 941.557 88.2907 941.557 89.368C941.557 90.4347 941.285 91.416 940.741 92.312C940.197 93.1973 939.461 93.9013 938.533 94.424C937.616 94.936 936.608 95.192 935.509 95.192ZM935.509 92.936C936.149 92.936 936.736 92.7813 937.269 92.472C937.813 92.1627 938.24 91.736 938.549 91.192C938.869 90.648 939.029 90.04 939.029 89.368C939.029 88.696 938.869 88.088 938.549 87.544C938.24 87 937.813 86.5733 937.269 86.264C936.736 85.9547 936.149 85.8 935.509 85.8C934.869 85.8 934.277 85.9547 933.733 86.264C933.2 86.5733 932.773 87 932.453 87.544C932.144 88.088 931.989 88.696 931.989 89.368C931.989 90.04 932.144 90.648 932.453 91.192C932.773 91.736 933.2 92.1627 933.733 92.472C934.277 92.7813 934.869 92.936 935.509 92.936ZM950.195 83.736H952.611V95H950.195V90.408H945.299V95H942.883V83.736H945.299V88.2H950.195V83.736ZM963.417 83.736V85.928H959.817V95H957.401V85.928H953.753V83.736H963.417ZM970.696 95L969.896 93.08H964.84L964.024 95H961.544L966.488 83.736H968.392L973.288 95H970.696ZM965.672 91.08H969.048L967.368 87.08L965.672 91.08ZM979.524 89.272L984.276 95H981.284L977.524 90.392H976.58V95H974.164V83.736H976.58V88.312H977.588L981.22 83.736H984.02L979.524 89.272ZM993.917 83.736V85.928H990.317V95H987.901V85.928H984.253V83.736H993.917ZM999.711 87.896C1000.54 87.896 1001.27 88.0453 1001.89 88.344C1002.51 88.6427 1002.98 89.0587 1003.31 89.592C1003.64 90.1147 1003.81 90.712 1003.81 91.384C1003.81 92.0773 1003.64 92.7013 1003.31 93.256C1002.98 93.8 1002.51 94.2267 1001.89 94.536C1001.27 94.8453 1000.54 95 999.711 95H995.055V83.736H997.471V87.896H999.711ZM1004.83 83.736H1007.25V95H1004.83V83.736ZM999.631 92.856C1000.11 92.856 1000.51 92.728 1000.81 92.472C1001.12 92.2053 1001.28 91.8427 1001.28 91.384C1001.28 90.936 1001.12 90.584 1000.81 90.328C1000.51 90.0613 1000.11 89.928 999.631 89.928H997.471V92.856H999.631Z" fill="#EDEDED"/>
<path d="M1265.78 213.08V218.84H1257.47V227.144H1251.23V218.84H1242.74V213.08H1251.23V204.872H1257.47V213.08H1265.78ZM1290.44 215.384C1292.13 216.152 1293.41 217.24 1294.28 218.648C1295.14 220.024 1295.57 221.544 1295.57 223.208C1295.57 225.224 1295.03 227.016 1293.94 228.584C1292.88 230.152 1291.38 231.384 1289.43 232.28C1287.48 233.144 1285.22 233.576 1282.66 233.576C1280.42 233.576 1278.37 233.208 1276.52 232.472C1274.66 231.736 1273.14 230.68 1271.96 229.304C1270.77 227.928 1270.07 226.28 1269.84 224.36L1276.76 223.64C1277.08 224.824 1277.76 225.704 1278.82 226.28C1279.88 226.856 1281.11 227.144 1282.52 227.144C1284.24 227.144 1285.59 226.76 1286.55 225.992C1287.51 225.224 1287.99 224.232 1287.99 223.016C1287.99 221.704 1287.44 220.712 1286.36 220.04C1285.27 219.336 1283.73 218.984 1281.75 218.984H1279.01V213.224H1281.94C1283.6 213.224 1284.9 212.856 1285.83 212.12C1286.76 211.384 1287.22 210.408 1287.22 209.192C1287.22 207.944 1286.79 206.952 1285.92 206.216C1285.06 205.448 1283.8 205.064 1282.13 205.064C1280.66 205.064 1279.46 205.384 1278.53 206.024C1277.64 206.664 1277.03 207.624 1276.71 208.904L1269.94 208.184C1270.2 206.296 1270.82 204.648 1271.81 203.24C1272.8 201.8 1274.2 200.68 1275.99 199.88C1277.78 199.048 1279.96 198.632 1282.52 198.632C1284.98 198.632 1287.12 199.08 1288.95 199.976C1290.77 200.872 1292.16 202.056 1293.12 203.528C1294.08 205 1294.56 206.568 1294.56 208.232C1294.56 209.768 1294.21 211.16 1293.51 212.408C1292.84 213.624 1291.81 214.616 1290.44 215.384ZM1296.99 199.208H1320.75V203.96L1307.26 233H1299.49L1312.3 205.784H1296.99V199.208ZM1347.25 226.424V233H1323.06V229.256L1332.61 219.416C1334.76 217.208 1336.32 215.384 1337.32 213.944C1338.31 212.472 1338.8 211.128 1338.8 209.912C1338.8 208.536 1338.42 207.416 1337.65 206.552C1336.92 205.688 1335.75 205.256 1334.15 205.256C1332.84 205.256 1331.76 205.656 1330.93 206.456C1330.13 207.256 1329.6 208.424 1329.35 209.96L1322.2 209.192C1322.74 205.64 1324.08 203 1326.23 201.272C1328.37 199.512 1331.12 198.632 1334.48 198.632C1337.17 198.632 1339.41 199.144 1341.2 200.168C1343.03 201.16 1344.37 202.472 1345.24 204.104C1346.1 205.736 1346.53 207.528 1346.53 209.48C1346.53 211.016 1346.16 212.504 1345.43 213.944C1344.72 215.384 1343.73 216.824 1342.45 218.264C1341.2 219.672 1339.41 221.512 1337.08 223.784L1334.34 226.424H1347.25ZM1375.67 210.44C1378.26 210.44 1380.47 210.984 1382.29 212.072C1384.12 213.16 1385.49 214.584 1386.42 216.344C1387.35 218.104 1387.81 219.96 1387.81 221.912C1387.81 224.024 1387.27 225.976 1386.18 227.768C1385.12 229.528 1383.64 230.936 1381.72 231.992C1379.83 233.048 1377.68 233.576 1375.28 233.576C1371.96 233.576 1369.16 232.76 1366.88 231.128C1364.64 229.496 1363.16 227.16 1362.42 224.12L1369.48 223.16C1370.05 224.472 1370.77 225.448 1371.64 226.088C1372.53 226.696 1373.62 227 1374.9 227C1375.92 227 1376.84 226.776 1377.64 226.328C1378.47 225.88 1379.11 225.272 1379.56 224.504C1380 223.736 1380.23 222.888 1380.23 221.96C1380.23 221.032 1380 220.184 1379.56 219.416C1379.11 218.648 1378.47 218.04 1377.64 217.592C1376.8 217.112 1375.84 216.872 1374.76 216.872C1373.73 216.872 1372.79 217.112 1371.92 217.592C1371.09 218.04 1370.39 218.68 1369.81 219.512L1363.38 218.552L1365.92 199.208H1385.51V205.784H1371.68L1370.92 211.592C1372.45 210.824 1374.04 210.44 1375.67 210.44ZM1403.28 210.44C1405.87 210.44 1408.08 210.984 1409.9 212.072C1411.73 213.16 1413.1 214.584 1414.03 216.344C1414.96 218.104 1415.42 219.96 1415.42 221.912C1415.42 224.024 1414.88 225.976 1413.79 227.768C1412.73 229.528 1411.25 230.936 1409.33 231.992C1407.44 233.048 1405.29 233.576 1402.89 233.576C1399.57 233.576 1396.77 232.76 1394.49 231.128C1392.25 229.496 1390.77 227.16 1390.03 224.12L1397.09 223.16C1397.66 224.472 1398.38 225.448 1399.25 226.088C1400.14 226.696 1401.23 227 1402.51 227C1403.53 227 1404.45 226.776 1405.25 226.328C1406.08 225.88 1406.72 225.272 1407.17 224.504C1407.61 223.736 1407.84 222.888 1407.84 221.96C1407.84 221.032 1407.61 220.184 1407.17 219.416C1406.72 218.648 1406.08 218.04 1405.25 217.592C1404.41 217.112 1403.45 216.872 1402.37 216.872C1401.34 216.872 1400.4 217.112 1399.53 217.592C1398.7 218.04 1398 218.68 1397.42 219.512L1390.99 218.552L1393.53 199.208H1413.12V205.784H1399.29L1398.53 211.592C1400.06 210.824 1401.65 210.44 1403.28 210.44ZM1443.68 210.44C1446.28 210.44 1448.48 210.984 1450.31 212.072C1452.13 213.16 1453.51 214.584 1454.44 216.344C1455.36 218.104 1455.83 219.96 1455.83 221.912C1455.83 224.024 1455.28 225.976 1454.2 227.768C1453.14 229.528 1451.65 230.936 1449.73 231.992C1447.84 233.048 1445.7 233.576 1443.3 233.576C1439.97 233.576 1437.17 232.76 1434.9 231.128C1432.66 229.496 1431.17 227.16 1430.44 224.12L1437.49 223.16C1438.07 224.472 1438.79 225.448 1439.65 226.088C1440.55 226.696 1441.64 227 1442.92 227C1443.94 227 1444.85 226.776 1445.65 226.328C1446.48 225.88 1447.12 225.272 1447.57 224.504C1448.02 223.736 1448.24 222.888 1448.24 221.96C1448.24 221.032 1448.02 220.184 1447.57 219.416C1447.12 218.648 1446.48 218.04 1445.65 217.592C1444.82 217.112 1443.86 216.872 1442.77 216.872C1441.75 216.872 1440.8 217.112 1439.94 217.592C1439.11 218.04 1438.4 218.68 1437.83 219.512L1431.4 218.552L1433.94 199.208H1453.52V205.784H1439.7L1438.93 211.592C1440.47 210.824 1442.05 210.44 1443.68 210.44ZM1470.62 198.632C1473.43 198.632 1475.88 199.256 1477.96 200.504C1480.04 201.72 1481.66 203.608 1482.81 206.168C1483.99 208.696 1484.59 211.88 1484.59 215.72C1484.59 219.464 1484.04 222.68 1482.95 225.368C1481.9 228.024 1480.33 230.056 1478.25 231.464C1476.17 232.872 1473.64 233.576 1470.67 233.576C1467.72 233.576 1465.18 232.904 1463.03 231.56C1460.89 230.184 1459.35 228.056 1458.43 225.176L1465.34 224.36C1466.43 226.184 1468.17 227.096 1470.57 227.096C1472.49 227.096 1474.03 226.44 1475.18 225.128C1476.36 223.784 1477.05 221.56 1477.24 218.456C1476.38 219.512 1475.31 220.312 1474.03 220.856C1472.78 221.4 1471.39 221.672 1469.85 221.672C1467.42 221.672 1465.31 221.192 1463.51 220.232C1461.72 219.24 1460.35 217.896 1459.39 216.2C1458.46 214.472 1457.99 212.52 1457.99 210.344C1457.99 208.264 1458.49 206.344 1459.48 204.584C1460.51 202.792 1461.98 201.352 1463.9 200.264C1465.82 199.176 1468.06 198.632 1470.62 198.632ZM1470.76 215.576C1472.01 215.576 1473.23 215.304 1474.41 214.76C1475.63 214.216 1476.57 213.448 1477.24 212.456C1477.02 210.024 1476.33 208.2 1475.18 206.984C1474.03 205.736 1472.54 205.112 1470.71 205.112C1469.69 205.112 1468.76 205.352 1467.93 205.832C1467.13 206.28 1466.49 206.92 1466.01 207.752C1465.56 208.552 1465.34 209.448 1465.34 210.44C1465.34 211.432 1465.58 212.328 1466.06 213.128C1466.54 213.896 1467.18 214.504 1467.98 214.952C1468.81 215.368 1469.74 215.576 1470.76 215.576ZM1498.63 199.208H1503.43V233H1496.13V207.752L1487.59 212.168L1486.96 205.592L1498.63 199.208ZM1544.64 226.424V233H1520.45V229.256L1530 219.416C1532.15 217.208 1533.72 215.384 1534.71 213.944C1535.7 212.472 1536.2 211.128 1536.2 209.912C1536.2 208.536 1535.81 207.416 1535.04 206.552C1534.31 205.688 1533.14 205.256 1531.54 205.256C1530.23 205.256 1529.16 205.656 1528.32 206.456C1527.52 207.256 1527 208.424 1526.74 209.96L1519.59 209.192C1520.13 205.64 1521.48 203 1523.62 201.272C1525.76 199.512 1528.52 198.632 1531.88 198.632C1534.56 198.632 1536.8 199.144 1538.6 200.168C1540.42 201.16 1541.76 202.472 1542.63 204.104C1543.49 205.736 1543.92 207.528 1543.92 209.48C1543.92 211.016 1543.56 212.504 1542.82 213.944C1542.12 215.384 1541.12 216.824 1539.84 218.264C1538.6 219.672 1536.8 221.512 1534.47 223.784L1531.73 226.424H1544.64ZM1572.49 226.424V233H1548.3V229.256L1557.85 219.416C1559.99 217.208 1561.56 215.384 1562.55 213.944C1563.54 212.472 1564.04 211.128 1564.04 209.912C1564.04 208.536 1563.66 207.416 1562.89 206.552C1562.15 205.688 1560.98 205.256 1559.38 205.256C1558.07 205.256 1557 205.656 1556.17 206.456C1555.37 207.256 1554.84 208.424 1554.58 209.96L1547.43 209.192C1547.98 205.64 1549.32 203 1551.46 201.272C1553.61 199.512 1556.36 198.632 1559.72 198.632C1562.41 198.632 1564.65 199.144 1566.44 200.168C1568.26 201.16 1569.61 202.472 1570.47 204.104C1571.34 205.736 1571.77 207.528 1571.77 209.48C1571.77 211.016 1571.4 212.504 1570.66 213.944C1569.96 215.384 1568.97 216.824 1567.69 218.264C1566.44 219.672 1564.65 221.512 1562.31 223.784L1559.58 226.424H1572.49ZM1595.83 215.384C1597.52 216.152 1598.8 217.24 1599.67 218.648C1600.53 220.024 1600.96 221.544 1600.96 223.208C1600.96 225.224 1600.42 227.016 1599.33 228.584C1598.27 230.152 1596.77 231.384 1594.82 232.28C1592.87 233.144 1590.61 233.576 1588.05 233.576C1585.81 233.576 1583.76 233.208 1581.91 232.472C1580.05 231.736 1578.53 230.68 1577.35 229.304C1576.16 227.928 1575.46 226.28 1575.23 224.36L1582.15 223.64C1582.47 224.824 1583.15 225.704 1584.21 226.28C1585.27 226.856 1586.5 227.144 1587.91 227.144C1589.63 227.144 1590.98 226.76 1591.94 225.992C1592.9 225.224 1593.38 224.232 1593.38 223.016C1593.38 221.704 1592.83 220.712 1591.75 220.04C1590.66 219.336 1589.12 218.984 1587.14 218.984H1584.4V213.224H1587.33C1588.99 213.224 1590.29 212.856 1591.22 212.12C1592.15 211.384 1592.61 210.408 1592.61 209.192C1592.61 207.944 1592.18 206.952 1591.31 206.216C1590.45 205.448 1589.19 205.064 1587.52 205.064C1586.05 205.064 1584.85 205.384 1583.92 206.024C1583.03 206.664 1582.42 207.624 1582.1 208.904L1575.33 208.184C1575.59 206.296 1576.21 204.648 1577.2 203.24C1578.19 201.8 1579.59 200.68 1581.38 199.88C1583.17 199.048 1585.35 198.632 1587.91 198.632C1590.37 198.632 1592.51 199.08 1594.34 199.976C1596.16 200.872 1597.55 202.056 1598.51 203.528C1599.47 205 1599.95 206.568 1599.95 208.232C1599.95 209.768 1599.6 211.16 1598.9 212.408C1598.23 213.624 1597.2 214.616 1595.83 215.384Z" fill="#EDEDED"/>
<path d="M655 142.82C656.55 142.82 657.82 141.55 657.82 140C657.82 138.45 656.55 137.18 655 137.18C653.45 137.18 652.18 138.45 652.18 140C652.18 141.55 653.45 142.82 655 142.82Z" fill="#EDEDED"/>
<path d="M660.14 130H649.86C647.18 130 645 132.18 645 134.86V145.14C645 147.82 647.18 150 649.86 150H660.14C662.82 150 665 147.82 665 145.14V134.86C665 132.18 662.82 130 660.14 130ZM660.15 135.91C659.58 135.91 659.12 135.45 659.12 134.89C659.12 134.32 659.58 133.86 660.15 133.86C660.71 133.86 661.17 134.32 661.17 134.89C661.17 135.45 660.71 135.91 660.15 135.91ZM655 135.68C657.38 135.68 659.32 137.62 659.32 140C659.32 142.38 657.38 144.32 655 144.32C652.62 144.32 650.68 142.38 650.68 140C650.68 137.62 652.62 135.68 655 135.68Z" fill="#EDEDED"/>
<path d="M677.992 145.5V134.236H680.408V145.5H677.992ZM689.55 134.236H691.95V145.5H690.494L684.798 138.924V145.5H682.398V134.236H683.774L689.55 140.908V134.236ZM697.962 145.692C695.178 145.692 693.631 144.593 693.322 142.396L695.786 142.124C695.86 142.604 696.074 142.951 696.426 143.164C696.778 143.377 697.295 143.484 697.978 143.484C698.714 143.484 699.236 143.388 699.546 143.196C699.855 143.004 700.01 142.711 700.01 142.316C700.01 141.985 699.86 141.724 699.562 141.532C699.263 141.34 698.799 141.18 698.17 141.052L697.082 140.844C695.951 140.62 695.066 140.247 694.426 139.724C693.796 139.201 693.482 138.449 693.482 137.468C693.482 136.785 693.647 136.188 693.978 135.676C694.308 135.153 694.804 134.753 695.466 134.476C696.138 134.188 696.959 134.044 697.93 134.044C699.327 134.044 700.378 134.332 701.082 134.908C701.786 135.473 702.196 136.241 702.314 137.212L699.93 137.5C699.844 137.084 699.642 136.775 699.322 136.572C699.002 136.359 698.548 136.252 697.962 136.252C697.482 136.252 697.103 136.295 696.826 136.38C696.548 136.455 696.351 136.572 696.234 136.732C696.116 136.892 696.058 137.1 696.058 137.356C696.058 137.58 696.127 137.772 696.266 137.932C696.404 138.081 696.623 138.215 696.922 138.332C697.231 138.449 697.642 138.556 698.154 138.652L699.194 138.876C700.292 139.1 701.14 139.468 701.738 139.98C702.335 140.481 702.634 141.223 702.634 142.204C702.634 143.313 702.239 144.172 701.45 144.78C700.671 145.388 699.508 145.692 697.962 145.692ZM712.652 134.236V136.428H709.052V145.5H706.636V136.428H702.988V134.236H712.652ZM719.931 145.5L719.131 143.58H714.075L713.259 145.5H710.779L715.723 134.236H717.627L722.523 145.5H719.931ZM714.907 141.58H718.283L716.603 137.58L714.907 141.58ZM733.285 145.5H731.653L731.077 144.508C730.703 144.881 730.245 145.175 729.701 145.388C729.157 145.591 728.543 145.692 727.861 145.692C726.805 145.692 725.839 145.441 724.965 144.94C724.101 144.439 723.413 143.745 722.901 142.86C722.399 141.975 722.149 140.977 722.149 139.868C722.149 138.801 722.399 137.825 722.901 136.94C723.402 136.055 724.095 135.351 724.981 134.828C725.877 134.305 726.89 134.044 728.021 134.044C728.863 134.044 729.626 134.177 730.309 134.444C731.002 134.711 731.594 135.089 732.085 135.58C732.575 136.071 732.954 136.657 733.221 137.34L730.773 137.628C730.463 137.191 730.069 136.86 729.589 136.636C729.119 136.412 728.591 136.3 728.005 136.3C727.365 136.3 726.789 136.449 726.277 136.748C725.775 137.047 725.381 137.463 725.093 137.996C724.815 138.529 724.677 139.132 724.677 139.804C724.677 140.551 724.826 141.207 725.125 141.772C725.434 142.327 725.845 142.753 726.357 143.052C726.879 143.351 727.455 143.5 728.085 143.5C728.703 143.5 729.258 143.399 729.749 143.196C730.25 142.993 730.645 142.716 730.933 142.364V141.228H727.669V139.18H733.285V145.5ZM739.039 141.58H737.471V145.5H735.055V134.236H739.791C740.559 134.236 741.236 134.396 741.823 134.716C742.42 135.025 742.879 135.463 743.199 136.028C743.529 136.583 743.695 137.207 743.695 137.9C743.695 138.636 743.497 139.287 743.102 139.852C742.719 140.417 742.185 140.839 741.503 141.116L744.559 145.5H741.679L739.039 141.58ZM737.471 139.484H739.487C739.817 139.484 740.105 139.42 740.351 139.292C740.607 139.153 740.804 138.967 740.943 138.732C741.092 138.487 741.167 138.209 741.167 137.9C741.167 137.591 741.092 137.324 740.943 137.1C740.804 136.865 740.607 136.689 740.351 136.572C740.095 136.444 739.807 136.38 739.487 136.38H737.471V139.484ZM753.602 145.5L752.803 143.58H747.747L746.931 145.5H744.45L749.395 134.236H751.299L756.195 145.5H753.602ZM748.579 141.58H751.955L750.275 137.58L748.579 141.58ZM769.006 134.236V145.5H766.734V139.628L763.806 145.5H762.222L759.342 139.74V145.5H757.07V134.236H759.054L763.118 142.316L766.974 134.236H769.006Z" fill="#EDEDED"/>
<path d="M1575.5 148C1575.5 154.875 1581.12 160.5 1588 160.5C1594.88 160.5 1600.5 154.875 1600.5 148C1600.5 141.125 1594.87 135.5 1588 135.5C1581.12 135.5 1575.5 141.125 1575.5 148ZM1588.87 143.375L1592.62 147.125C1593.12 147.625 1593.12 148.375 1592.62 148.875C1592.12 149.375 1591.37 149.375 1590.87 148.875L1589.25 147.25L1589.25 151.75C1589.25 152.5 1588.75 153 1588 153C1587.25 153 1586.75 152.5 1586.75 151.75L1586.75 147.25L1585.12 148.875C1584.62 149.375 1583.87 149.375 1583.37 148.875C1582.87 148.375 1582.87 147.625 1583.37 147.125L1587.12 143.375C1587.62 142.875 1588.37 142.875 1588.87 143.375Z" fill="#EDEDED"/>
</svg>
