<svg width="550" height="177" viewBox="0 0 550 177" fill="none" xmlns="http://www.w3.org/2000/svg">
<path d="M0 3C0 1.34314 1.34315 0 3 0H51C51.5523 0 52 0.447715 52 1V30C52 31.6569 50.6569 33 49 33H1C0.447716 33 0 32.5523 0 32V3Z" fill="#F60030"/>
<path d="M16.78 13.19C17.824 14.09 18.346 15.26 18.346 16.7C18.346 18.14 17.824 19.31 16.78 20.21C15.736 21.11 14.338 21.644 12.586 21.812V23.27H10.156V21.812C8.392 21.632 6.994 21.098 5.962 20.21C4.93 19.31 4.414 18.14 4.414 16.7C4.414 15.26 4.93 14.096 5.962 13.208C6.994 12.308 8.392 11.768 10.156 11.588V10.13H12.586V11.588C14.338 11.756 15.736 12.29 16.78 13.19ZM12.586 19.544C14.77 19.292 15.862 18.344 15.862 16.7C15.862 15.044 14.77 14.09 12.586 13.838V19.544ZM6.88 16.7C6.88 18.344 7.972 19.286 10.156 19.526V13.856C7.972 14.096 6.88 15.044 6.88 16.7ZM26.65 14H28.972V23H26.65V21.938C25.954 22.814 24.976 23.252 23.716 23.252C22.516 23.252 21.484 22.796 20.62 21.884C19.768 20.96 19.342 19.832 19.342 18.5C19.342 17.168 19.768 16.046 20.62 15.134C21.484 14.21 22.516 13.748 23.716 13.748C24.976 13.748 25.954 14.186 26.65 15.062V14ZM22.366 20.336C22.834 20.804 23.428 21.038 24.148 21.038C24.868 21.038 25.462 20.804 25.93 20.336C26.41 19.856 26.65 19.244 26.65 18.5C26.65 17.756 26.41 17.15 25.93 16.682C25.462 16.202 24.868 15.962 24.148 15.962C23.428 15.962 22.834 16.202 22.366 16.682C21.898 17.15 21.664 17.756 21.664 18.5C21.664 19.244 21.898 19.856 22.366 20.336ZM39.3756 23H36.6756L33.3996 18.914V23H31.0776V14H33.3996V17.96L36.4956 14H39.2676L35.6496 18.446L39.3756 23ZM47.6267 14V16.232H44.8187V23H42.4967V16.232H39.6527V14H47.6267Z" fill="#EDEDED"/>
<path d="M32.16 67.208V101H24.912V73.832H10.224V101H2.976V67.208H32.16ZM54.3083 101.576C51.0443 101.576 48.0203 100.808 45.2363 99.272C42.4523 97.704 40.2443 95.592 38.6123 92.936C36.9803 90.28 36.1643 87.336 36.1643 84.104C36.1643 80.872 36.9803 77.928 38.6123 75.272C40.2443 72.584 42.4523 70.472 45.2363 68.936C48.0203 67.4 51.0443 66.632 54.3083 66.632C57.6043 66.632 60.6283 67.4 63.3802 68.936C66.1643 70.472 68.3723 72.584 70.0043 75.272C71.6363 77.928 72.4523 80.872 72.4523 84.104C72.4523 87.304 71.6363 90.248 70.0043 92.936C68.3723 95.592 66.1643 97.704 63.3802 99.272C60.6283 100.808 57.6043 101.576 54.3083 101.576ZM54.3083 94.808C56.2283 94.808 57.9883 94.344 59.5883 93.416C61.2203 92.488 62.5003 91.208 63.4283 89.576C64.3883 87.944 64.8683 86.12 64.8683 84.104C64.8683 82.088 64.3883 80.264 63.4283 78.632C62.5003 77 61.2203 75.72 59.5883 74.792C57.9883 73.864 56.2283 73.4 54.3083 73.4C52.3883 73.4 50.6123 73.864 48.9803 74.792C47.3803 75.72 46.1003 77 45.1403 78.632C44.2123 80.264 43.7483 82.088 43.7483 84.104C43.7483 86.12 44.2123 87.944 45.1403 89.576C46.1003 91.208 47.3803 92.488 48.9803 93.416C50.6123 94.344 52.3883 94.808 54.3083 94.808ZM102.349 67.208V101H95.0531V86.792C93.9971 87.816 92.8291 88.568 91.5491 89.048C90.2691 89.528 88.8291 89.768 87.2291 89.768C84.8931 89.768 82.8291 89.304 81.0371 88.376C79.2771 87.416 77.9011 86.072 76.9091 84.344C75.9491 82.584 75.4691 80.536 75.4691 78.2V67.208H82.7171V77.576C82.7171 79.464 83.2451 80.904 84.3011 81.896C85.3891 82.856 86.8611 83.336 88.7171 83.336C89.9651 83.336 91.1651 83.08 92.3171 82.568C93.4691 82.024 94.3811 81.336 95.0531 80.504V67.208H102.349ZM115.552 94.424H131.92V101H108.304V67.208H131.536V73.784H115.552V80.936H129.568V87.08H115.552V94.424ZM172.19 67.208V101H165.374V83.384L156.59 101H151.838L143.198 83.72V101H136.382V67.208H142.334L154.526 91.448L166.094 67.208H172.19ZM206.9 67.208L194.132 94.136C193.044 96.408 191.604 98.2 189.812 99.512C188.02 100.792 185.908 101.432 183.476 101.432C182.164 101.432 180.836 101.224 179.492 100.808L180.356 94.808C181.316 95.064 182.292 95.192 183.284 95.192C184.308 95.192 185.316 94.888 186.308 94.28C187.3 93.672 188.052 92.792 188.564 91.64L174.596 67.208H182.708L191.876 84.2L199.46 67.208H206.9ZM243.26 82.712C244.86 83.512 246.092 84.616 246.956 86.024C247.852 87.4 248.3 88.936 248.3 90.632C248.3 92.744 247.804 94.584 246.812 96.152C245.852 97.72 244.492 98.92 242.732 99.752C241.004 100.584 239.036 101 236.828 101H221.132V67.208H236.204C238.06 67.208 239.788 67.576 241.388 68.312C242.988 69.048 244.268 70.12 245.228 71.528C246.22 72.936 246.716 74.616 246.716 76.568C246.716 78.968 245.564 81.016 243.26 82.712ZM228.38 73.496V81.128H235.34C236.588 81.128 237.564 80.776 238.268 80.072C239.004 79.368 239.372 78.44 239.372 77.288C239.372 76.584 239.196 75.944 238.844 75.368C238.524 74.792 238.06 74.344 237.452 74.024C236.844 73.672 236.14 73.496 235.34 73.496H228.38ZM236.54 94.712C237.756 94.712 238.748 94.36 239.516 93.656C240.316 92.952 240.716 92.024 240.716 90.872C240.716 90.168 240.524 89.528 240.14 88.952C239.756 88.376 239.244 87.912 238.604 87.56C237.964 87.208 237.26 87.032 236.492 87.032H228.38V94.712H236.54ZM266.413 79.688C268.909 79.688 271.085 80.136 272.941 81.032C274.797 81.928 276.221 83.176 277.213 84.776C278.205 86.344 278.701 88.136 278.701 90.152C278.701 92.232 278.205 94.104 277.213 95.768C276.221 97.4 274.797 98.68 272.941 99.608C271.085 100.536 268.909 101 266.413 101H252.445V67.208H259.693V79.688H266.413ZM281.773 67.208H289.021V101H281.773V67.208ZM266.173 94.568C267.613 94.568 268.797 94.184 269.725 93.416C270.653 92.616 271.117 91.528 271.117 90.152C271.117 88.808 270.653 87.752 269.725 86.984C268.797 86.184 267.613 85.784 266.173 85.784H259.693V94.568H266.173ZM309.264 80.408C311.728 80.408 313.856 80.84 315.648 81.704C317.44 82.568 318.816 83.768 319.776 85.304C320.736 86.84 321.216 88.6 321.216 90.584C321.216 92.6 320.72 94.392 319.728 95.96C318.768 97.528 317.376 98.76 315.552 99.656C313.76 100.552 311.664 101 309.264 101H294.96V67.208H318.912V73.784H302.208V80.408H309.264ZM308.832 94.712C309.728 94.712 310.544 94.552 311.28 94.232C312.016 93.88 312.592 93.4 313.008 92.792C313.424 92.152 313.632 91.4 313.632 90.536C313.632 89.288 313.184 88.312 312.288 87.608C311.392 86.904 310.24 86.552 308.832 86.552H302.256V94.712H308.832ZM353.945 67.208V101H346.697V80.84L329.609 101H325.289V67.208H332.537V87.992L349.769 67.208H353.945ZM373.994 67.208C376.234 67.208 378.234 67.704 379.994 68.696C381.754 69.656 383.114 70.984 384.074 72.68C385.066 74.376 385.562 76.264 385.562 78.344C385.562 80.392 385.082 82.264 384.122 83.96C383.162 85.624 381.802 86.952 380.042 87.944C378.282 88.904 376.266 89.384 373.994 89.384H367.13V101H359.882V67.208H373.994ZM373.034 83.24C373.994 83.24 374.842 83.032 375.578 82.616C376.346 82.2 376.938 81.624 377.354 80.888C377.77 80.12 377.978 79.272 377.978 78.344C377.978 77.448 377.754 76.648 377.306 75.944C376.89 75.208 376.298 74.648 375.53 74.264C374.794 73.848 373.962 73.64 373.034 73.64H367.13V83.24H373.034ZM409.854 101L407.454 95.24H392.286L389.838 101H382.398L397.23 67.208H402.942L417.63 101H409.854ZM394.782 89.24H404.91L399.87 77.24L394.782 89.24ZM449.729 66.632C452.929 66.632 455.825 67.4 458.417 68.936C461.041 70.44 463.089 72.536 464.561 75.224C466.065 77.88 466.817 80.84 466.817 84.104C466.817 87.368 466.065 90.328 464.561 92.984C463.057 95.64 461.009 97.736 458.417 99.272C455.825 100.808 452.929 101.576 449.729 101.576C446.881 101.576 444.257 100.968 441.857 99.752C439.457 98.504 437.457 96.792 435.857 94.616C434.289 92.44 433.281 89.976 432.833 87.224H427.505V101H420.257V67.208H427.505V80.6H432.929C433.409 77.912 434.433 75.512 436.001 73.4C437.569 71.256 439.537 69.592 441.905 68.408C444.305 67.224 446.913 66.632 449.729 66.632ZM449.729 94.808C451.521 94.808 453.137 94.36 454.577 93.464C456.049 92.536 457.185 91.256 457.985 89.624C458.817 87.992 459.233 86.152 459.233 84.104C459.233 82.056 458.817 80.216 457.985 78.584C457.185 76.952 456.049 75.688 454.577 74.792C453.137 73.864 451.521 73.4 449.729 73.4C447.905 73.4 446.257 73.864 444.785 74.792C443.345 75.688 442.209 76.952 441.377 78.584C440.577 80.184 440.177 82.024 440.177 84.104C440.177 86.184 440.577 88.04 441.377 89.672C442.209 91.272 443.345 92.536 444.785 93.464C446.257 94.36 447.905 94.808 449.729 94.808ZM495.549 67.208V73.784H484.749V101H477.501V73.784H466.557V67.208H495.549Z" fill="#EDEDED"/>
<path d="M1.68 129.208H25.44V133.96L11.952 163H4.176L16.992 135.784H1.68V129.208ZM38.9231 129.208H43.7231V163H36.4271V137.752L27.8831 142.168L27.2591 135.592L38.9231 129.208ZM48.3206 129.208H72.0806V133.96L58.5926 163H50.8166L63.6326 135.784H48.3206V129.208ZM103.256 163.576C99.9915 163.576 97.0955 162.808 94.5675 161.272C92.0715 159.736 90.1355 157.64 88.7595 154.984C87.3835 152.296 86.6955 149.336 86.6955 146.104C86.6955 142.84 87.3835 139.88 88.7595 137.224C90.1675 134.568 92.1355 132.472 94.6635 130.936C97.2235 129.4 100.136 128.632 103.4 128.632C106.28 128.632 108.824 129.16 111.031 130.216C113.272 131.272 115.096 132.712 116.504 134.536C117.912 136.328 118.904 138.328 119.48 140.536L112.184 141.352C111.48 139.624 110.376 138.2 108.872 137.08C107.4 135.96 105.624 135.4 103.544 135.4C101.624 135.4 99.9595 135.864 98.5515 136.792C97.1755 137.72 96.1195 139 95.3835 140.632C94.6475 142.232 94.2795 144.056 94.2795 146.104C94.2795 148.152 94.6315 149.992 95.3355 151.624C96.0715 153.224 97.1435 154.488 98.5515 155.416C99.9595 156.344 101.624 156.808 103.544 156.808C107.768 156.808 110.664 154.808 112.232 150.808L119.432 151.576C118.888 153.816 117.912 155.848 116.504 157.672C115.128 159.464 113.304 160.904 111.031 161.992C108.792 163.048 106.2 163.576 103.256 163.576ZM137.652 163.576C134.772 163.576 132.196 163 129.924 161.848C127.684 160.696 125.94 159.08 124.692 157C123.444 154.92 122.82 152.504 122.82 149.752V129.208H130.116V149.896C130.116 151.336 130.436 152.6 131.076 153.688C131.716 154.744 132.596 155.56 133.716 156.136C134.868 156.68 136.18 156.952 137.652 156.952C139.124 156.952 140.42 156.68 141.54 156.136C142.66 155.56 143.524 154.744 144.132 153.688C144.772 152.6 145.092 151.336 145.092 149.896V129.208H152.34V149.752C152.34 152.504 151.716 154.936 150.468 157.048C149.252 159.128 147.54 160.744 145.332 161.896C143.124 163.016 140.564 163.576 137.652 163.576ZM169.291 163.576C160.939 163.576 156.299 160.28 155.371 153.688L162.763 152.872C162.987 154.312 163.627 155.352 164.683 155.992C165.739 156.632 167.291 156.952 169.339 156.952C171.547 156.952 173.115 156.664 174.043 156.088C174.971 155.512 175.435 154.632 175.435 153.448C175.435 152.456 174.987 151.672 174.091 151.096C173.195 150.52 171.803 150.04 169.915 149.656L166.651 149.032C163.259 148.36 160.603 147.24 158.683 145.672C156.795 144.104 155.851 141.848 155.851 138.904C155.851 136.856 156.347 135.064 157.339 133.528C158.331 131.96 159.819 130.76 161.803 129.928C163.819 129.064 166.283 128.632 169.195 128.632C173.387 128.632 176.539 129.496 178.651 131.224C180.763 132.92 181.995 135.224 182.347 138.136L175.195 139C174.939 137.752 174.331 136.824 173.371 136.216C172.411 135.576 171.051 135.256 169.291 135.256C167.851 135.256 166.715 135.384 165.883 135.64C165.051 135.864 164.459 136.216 164.107 136.696C163.755 137.176 163.579 137.8 163.579 138.568C163.579 139.24 163.787 139.816 164.203 140.296C164.619 140.744 165.275 141.144 166.171 141.496C167.099 141.848 168.331 142.168 169.867 142.456L172.987 143.128C176.283 143.8 178.827 144.904 180.619 146.44C182.411 147.944 183.307 150.168 183.307 153.112C183.307 156.44 182.123 159.016 179.755 160.84C177.419 162.664 173.931 163.576 169.291 163.576ZM213.362 129.208V135.784H202.562V163H195.314V135.784H184.37V129.208H213.362ZM231.261 163.576C227.997 163.576 224.973 162.808 222.189 161.272C219.405 159.704 217.197 157.592 215.565 154.936C213.933 152.28 213.117 149.336 213.117 146.104C213.117 142.872 213.933 139.928 215.565 137.272C217.197 134.584 219.405 132.472 222.189 130.936C224.973 129.4 227.997 128.632 231.261 128.632C234.557 128.632 237.581 129.4 240.333 130.936C243.117 132.472 245.325 134.584 246.957 137.272C248.589 139.928 249.405 142.872 249.405 146.104C249.405 149.304 248.589 152.248 246.957 154.936C245.325 157.592 243.117 159.704 240.333 161.272C237.581 162.808 234.557 163.576 231.261 163.576ZM231.261 156.808C233.181 156.808 234.941 156.344 236.541 155.416C238.173 154.488 239.453 153.208 240.381 151.576C241.341 149.944 241.821 148.12 241.821 146.104C241.821 144.088 241.341 142.264 240.381 140.632C239.453 139 238.173 137.72 236.541 136.792C234.941 135.864 233.181 135.4 231.261 135.4C229.341 135.4 227.565 135.864 225.933 136.792C224.333 137.72 223.053 139 222.093 140.632C221.165 142.264 220.701 144.088 220.701 146.104C220.701 148.12 221.165 149.944 222.093 151.576C223.053 153.208 224.333 154.488 225.933 155.416C227.565 156.344 229.341 156.808 231.261 156.808ZM289.19 129.208V163H282.374V145.384L273.59 163H268.838L260.198 145.72V163H253.382V129.208H259.334L271.526 153.448L283.094 129.208H289.19ZM307.244 163.576C298.892 163.576 294.252 160.28 293.324 153.688L300.716 152.872C300.94 154.312 301.58 155.352 302.636 155.992C303.692 156.632 305.244 156.952 307.292 156.952C309.5 156.952 311.068 156.664 311.996 156.088C312.924 155.512 313.388 154.632 313.388 153.448C313.388 152.456 312.94 151.672 312.044 151.096C311.148 150.52 309.756 150.04 307.868 149.656L304.604 149.032C301.212 148.36 298.556 147.24 296.636 145.672C294.748 144.104 293.804 141.848 293.804 138.904C293.804 136.856 294.3 135.064 295.292 133.528C296.284 131.96 297.772 130.76 299.756 129.928C301.772 129.064 304.236 128.632 307.148 128.632C311.34 128.632 314.492 129.496 316.604 131.224C318.716 132.92 319.948 135.224 320.3 138.136L313.148 139C312.892 137.752 312.284 136.824 311.324 136.216C310.364 135.576 309.004 135.256 307.244 135.256C305.804 135.256 304.668 135.384 303.836 135.64C303.004 135.864 302.412 136.216 302.06 136.696C301.708 137.176 301.532 137.8 301.532 138.568C301.532 139.24 301.74 139.816 302.156 140.296C302.572 140.744 303.228 141.144 304.124 141.496C305.052 141.848 306.284 142.168 307.82 142.456L310.94 143.128C314.236 143.8 316.78 144.904 318.572 146.44C320.364 147.944 321.26 150.168 321.26 153.112C321.26 156.44 320.076 159.016 317.708 160.84C315.372 162.664 311.884 163.576 307.244 163.576Z" fill="#F60030"/>
</svg>
