<svg width="152" height="56" viewBox="0 0 152 56" fill="none" xmlns="http://www.w3.org/2000/svg">
<path d="M2 17.3072L2.74561 20.0951L9.49357 18.2836L7.14035 29L10.2882 28.1549L12.8237 16.5866L11.0437 14.8795L2 17.3072Z" fill="url(#paint0_linear_141_133)"/>
<path d="M20.1763 12.4278L20.9219 15.2157L27.6699 13.4042L25.3167 24.1205L28.4645 23.2755L31 11.7072L29.22 10L20.1763 12.4278Z" fill="url(#paint1_linear_141_133)"/>
<path d="M16.8107 13.5672L18.8353 13L22 25.3477L19.6716 26L17.167 16.2276L15.1071 17.5042L14 15.5834L16.8107 13.5672Z" fill="url(#paint2_linear_141_133)"/>
<path d="M7.387 25.2583L0 29.8742L7.96411 29.5364L32.8952 28.7483L63.0204 28.5232C68.6376 28.5607 81.0493 28.6583 85.7585 28.7483C90.4677 28.8384 98.2625 29.2362 101.571 29.4238L118.077 31L119 29.7616L99.9554 28.4106L81.4879 27.3974L63.9437 26.7219L49.0543 25.596C47.5538 25.596 44.045 25.1907 42.0136 23.5695C39.4743 21.543 50.2085 18.2781 52.7478 17.4901C54.2893 17.0117 57.4791 16.114 59.8862 15.4465C61.2033 15.0813 62.4844 14.5991 63.7129 14L52.2861 15.5762C48.9004 16.2892 40.7209 18.2331 35.0883 20.3046C29.4557 22.3762 33.9725 25.1457 36.935 26.2715L7.387 25.2583Z" fill="#F60030"/>
<path d="M27.2978 25.3035L26.0281 24.0944L24.6428 25.1936H12.1766C11.7919 25.047 11.7842 24.4901 14.8315 23.4349C18.6406 22.116 35.6087 16.5104 39.9949 15.0815C44.3812 13.6526 50.9607 12.4435 56.5013 11.5642C62.0418 10.6849 67.2361 11.0147 70.699 11.3444C74.1619 11.6741 79.4716 12.6634 84.0887 13.9823C88.7059 15.3013 91.9379 16.8401 95.8624 18.7086L95.8625 18.7086C99.0021 20.2035 104.25 23.5815 106.482 25.0836C106.867 25.1936 108.929 25.5233 114.1 25.963C119.271 26.4026 125.874 27.4651 128.529 27.9414C131.415 28.5643 138.017 30.0518 141.341 31.019C143.642 31.6884 146.407 32.8177 148.466 33.7289C149.958 34.3892 152.908 36.4358 151.384 35.8552C149.652 35.1957 141.572 32.6677 138.34 31.8983C135.108 31.1289 129.799 30.0298 125.874 29.3703C121.949 28.7108 116.062 28.0513 113.523 27.8315C111.492 27.6556 100.441 26.9522 95.1699 26.6224L86.859 26.4026C85.8202 26.4026 83.8348 26.3367 84.2042 26.0729C84.5735 25.8091 86.8975 25.5966 88.0133 25.5233L92.7459 25.3035L102.442 25.0836C101.172 24.241 97.8248 22.094 94.5927 20.2474C90.5527 17.9392 83.3962 16.0707 81.0876 15.4112C78.779 14.7517 73.4693 13.8724 70.2373 13.5427C67.0053 13.2129 63.1961 13.5427 59.9641 13.7625C56.7871 13.9786 51.0448 15.1505 47.7805 15.8167L47.6132 15.8509C44.3812 16.5104 37.1092 18.7086 33.1847 20.2474C30.045 21.4785 31.3378 24.1311 32.3766 25.3035H27.2978Z" fill="#F60030"/>
<path d="M95.9034 8.75511L96.1049 11.0698L98.0085 12.4021L95.6737 12.6319L94.3068 14.5388L94.1053 12.224L92.2017 10.8918L94.5365 10.6619L95.9034 8.75511Z" fill="#F60030"/>
<path d="M92.6171 10.5334L94.1791 13.0059L96.7678 11.6452L94.2594 13.1409L95.6844 15.6901L94.1224 13.2176L91.5337 14.5783L94.0422 13.0827L92.6171 10.5334Z" fill="#F60030"/>
<ellipse cx="66" cy="4.5" rx="3" ry="2.5" fill="#EDEDED"/>
<circle cx="60" cy="7" r="2" fill="#EDEDED"/>
<circle cx="61" cy="1" r="1" fill="#EDEDED"/>
<circle cx="57" cy="1" r="1" fill="#EDEDED"/>
<path d="M36.6254 41.1344C36.433 42.8181 35.1903 43.6171 33.696 43.6171C31.9206 43.6171 30.5743 42.4899 30.5743 40.0071C30.5743 37.5386 31.9354 36.3971 33.696 36.3971C35.0719 36.3971 36.1963 37.0963 36.507 38.5375H39.2736C38.7114 35.6694 36.5218 34 33.696 34C30.5743 34 28 36.1546 28 40.0071C28 43.9453 30.5743 46 33.696 46C36.507 46 38.8742 44.3591 39.3328 41.1344H36.6254Z" fill="#F60030"/>
<path d="M47.5569 34.2283V41.4055C47.5569 43.2319 46.1662 43.7313 44.9826 43.7313C43.8138 43.7313 42.4083 43.2319 42.4083 41.4197V34.2283H40.0707V41.3627C40.0707 43.9025 41.5798 46 44.9826 46C48.4446 46 49.9093 43.9025 49.9093 41.3627V34.2283H47.5569Z" fill="#F60030"/>
<path d="M56.3629 38.8799C54.9426 38.5803 53.7294 38.3092 53.7294 37.4958C53.7294 36.6683 54.8538 36.3115 55.6232 36.3115C56.7624 36.3115 57.946 36.8395 57.946 37.7099V37.9382H60.5646V37.7099C60.5646 35.541 58.6413 34.0143 55.8895 34.0143C52.9009 34.0143 50.9628 35.4697 50.9628 37.7099C50.9628 39.8644 53.3152 40.4067 55.1941 40.8347C56.6736 41.1772 57.946 41.4625 57.946 42.3187C57.946 43.3603 56.8807 43.6599 55.8303 43.6599C54.7207 43.6599 53.6111 43.3175 53.6111 42.3187V42.0904H50.7705V42.3187C50.7705 44.3876 52.5606 46 55.4308 46C58.878 46 60.6682 44.4019 60.6682 42.1189C60.6682 39.8074 58.2862 39.2937 56.3629 38.8799Z" fill="#F60030"/>
<path d="M61.1111 34.2426V36.5541H65.2832V45.786H67.9315V36.5541H72.1037V34.2426H61.1111Z" fill="#F60030"/>
<path d="M78.0949 34C74.9731 34 72.3989 36.1546 72.3989 40.0071C72.3989 43.9453 74.9731 46 78.0949 46C81.2166 46 83.8056 43.9596 83.8056 40.0071C83.8056 36.2259 81.3645 34 78.0949 34ZM78.0949 43.6171C76.3195 43.6171 74.9731 42.4899 74.9731 40.0071C74.9731 37.5386 76.3343 36.3971 78.0949 36.3971C79.8702 36.3971 81.2166 37.5386 81.2166 40.0071C81.2166 42.4899 79.885 43.6171 78.0949 43.6171Z" fill="#F60030"/>
<path d="M94.3487 34.2426L90.9459 43.3317L87.5283 34.2426H84.7616V45.786H87.2768V39.1653L89.9546 45.786H91.9371L94.615 39.1795V45.786H97.1301V34.2426H94.3487Z" fill="#F60030"/>
<path d="M103.695 38.8799C102.274 38.5803 101.061 38.3092 101.061 37.4958C101.061 36.6683 102.186 36.3115 102.955 36.3115C104.094 36.3115 105.278 36.8395 105.278 37.7099V37.9382H107.896V37.7099C107.896 35.541 105.973 34.0143 103.221 34.0143C100.233 34.0143 98.2946 35.4697 98.2946 37.7099C98.2946 39.8644 100.647 40.4067 102.526 40.8347C104.005 41.1772 105.278 41.4625 105.278 42.3187C105.278 43.3603 104.213 43.6599 103.162 43.6599C102.052 43.6599 100.943 43.3175 100.943 42.3187V42.0904H98.1023V42.3187C98.1023 44.3876 99.8924 46 102.763 46C106.21 46 108 44.4019 108 42.1189C108 39.8074 105.618 39.2937 103.695 38.8799Z" fill="#F60030"/>
<path d="M40.0566 51.0962C40.7668 51.0962 41.3586 51.3274 41.8321 51.7898C42.3105 52.2523 42.5497 52.8223 42.5497 53.5C42.5497 54.1777 42.3105 54.7477 41.8321 55.2102C41.3586 55.6726 40.7668 55.9038 40.0566 55.9038H38V51.0962H40.0566ZM40.0566 54.9973C40.5054 54.9973 40.8704 54.8599 41.1515 54.5852C41.4326 54.3059 41.5732 53.9441 41.5732 53.5C41.5732 53.0559 41.4326 52.6964 41.1515 52.4217C40.8704 52.1424 40.5054 52.0027 40.0566 52.0027H39.0209V54.9973H40.0566Z" fill="#EDEDED"/>
<path d="M44.2948 54.9973H46.4771V55.9038H43.2739V51.0962H46.4401V52.0027H44.2948V53.0261H46.2552V53.919H44.2948V54.9973Z" fill="#EDEDED"/>
<path d="M50.6219 51.0962V52.0027H49.2238V55.9038H48.2028V52.0027H46.8121V51.0962H50.6219Z" fill="#EDEDED"/>
<path d="M54.1452 55.9038L53.8345 55.0385H51.7705L51.4598 55.9038H50.3575L52.17 51.0962H53.435L55.2549 55.9038H54.1452ZM52.096 54.1525H53.5164L52.8062 52.1882L52.096 54.1525Z" fill="#EDEDED"/>
<path d="M55.7577 51.0962H56.7786V55.9038H55.7577V51.0962Z" fill="#EDEDED"/>
<path d="M58.7581 54.9973H60.7334V55.9038H57.7372V51.0962H58.7581V54.9973Z" fill="#EDEDED"/>
<path d="M61.3133 51.0962H62.3342V55.9038H61.3133V51.0962Z" fill="#EDEDED"/>
<path d="M66.289 51.0962H67.3099V55.9038H66.5331L64.3137 52.9643V55.9038H63.2928V51.0962H64.0696L66.289 54.0288V51.0962Z" fill="#EDEDED"/>
<path d="M73.3528 53.3214V53.6923C73.3528 54.3791 73.1161 54.9354 72.6426 55.3613C72.1692 55.7871 71.5576 56 70.808 56C70.009 56 69.3456 55.7596 68.8179 55.2788C68.2952 54.7935 68.0338 54.2028 68.0338 53.5069C68.0338 52.8063 68.2927 52.2134 68.8105 51.728C69.3333 51.2427 69.9794 51 70.7488 51C71.2321 51 71.6735 51.103 72.073 51.3091C72.4725 51.5105 72.7832 51.7807 73.0051 52.1195L72.1322 52.5865C72.0089 52.3897 71.8215 52.2294 71.5699 52.1058C71.3233 51.9821 71.0472 51.9203 70.7414 51.9203C70.2482 51.9203 69.8413 52.0714 69.5207 52.3736C69.2051 52.6712 69.0473 53.049 69.0473 53.5069C69.0473 53.9602 69.2076 54.3356 69.5281 54.6332C69.8536 54.9263 70.2827 55.0728 70.8154 55.0728C71.2099 55.0728 71.5354 54.9927 71.7919 54.8324C72.0533 54.6676 72.2308 54.4432 72.3245 54.1593H70.7562V53.3214H73.3528Z" fill="#EDEDED"/>
<path d="M78.3845 56C77.6053 56 76.9617 55.7596 76.4537 55.2788C75.9457 54.7981 75.6917 54.2051 75.6917 53.5C75.6917 52.7903 75.9457 52.1973 76.4537 51.7212C76.9617 51.2404 77.6053 51 78.3845 51C78.853 51 79.2846 51.103 79.6791 51.3091C80.0786 51.5105 80.3893 51.7853 80.6113 52.1332L79.7309 52.6071C79.6027 52.3919 79.4202 52.2248 79.1835 52.1058C78.9467 51.9821 78.6804 51.9203 78.3845 51.9203C77.8815 51.9203 77.4746 52.0668 77.1639 52.3599C76.8581 52.6529 76.7052 53.033 76.7052 53.5C76.7052 53.9625 76.8581 54.3402 77.1639 54.6332C77.4746 54.9263 77.8815 55.0728 78.3845 55.0728C78.6804 55.0728 78.9467 55.0133 79.1835 54.8942C79.4251 54.7706 79.6076 54.6035 79.7309 54.3929L80.6113 54.8668C80.3893 55.2147 80.0811 55.4918 79.6865 55.6978C79.292 55.8993 78.858 56 78.3845 56Z" fill="#EDEDED"/>
<path d="M82.2593 54.9973H84.4417V55.9038H81.2384V51.0962H84.4047V52.0027H82.2593V53.0261H84.2197V53.919H82.2593V54.9973Z" fill="#EDEDED"/>
<path d="M88.1574 51.0962H89.1783V55.9038H88.4015L86.1822 52.9643V55.9038H85.1613V51.0962H85.9381L88.1574 54.0288V51.0962Z" fill="#EDEDED"/>
<path d="M93.5641 51.0962V52.0027H92.166V55.9038H91.145V52.0027H89.7542V51.0962H93.5641Z" fill="#EDEDED"/>
<path d="M95.155 54.9973H97.3373V55.9038H94.1341V51.0962H97.3004V52.0027H95.155V53.0261H97.1154V53.919H95.155V54.9973Z" fill="#EDEDED"/>
<path d="M100.898 55.9038L99.8546 54.2349H99.0778V55.9038H98.0569V51.0962H100.128C100.607 51.0962 101.014 51.2518 101.349 51.5632C101.684 51.8745 101.852 52.25 101.852 52.6896C101.852 52.9872 101.761 53.2642 101.578 53.5206C101.396 53.7724 101.154 53.9625 100.853 54.0907L102 55.9038H100.898ZM99.0778 51.9821V53.4038H100.128C100.321 53.4038 100.486 53.3352 100.624 53.1978C100.762 53.0559 100.831 52.8864 100.831 52.6896C100.831 52.4927 100.762 52.3255 100.624 52.1882C100.486 52.0508 100.321 51.9821 100.128 51.9821H99.0778Z" fill="#EDEDED"/>
<rect width="12" height="1" transform="matrix(1 8.15973e-09 -0.00212101 0.999998 23 52)" fill="#EDEDED"/>
<rect width="12" height="1" transform="matrix(1 9.12901e-09 -0.00189581 0.999998 104 52)" fill="#EDEDED"/>
<rect width="6" height="1" transform="matrix(1 9.04227e-09 -0.00191399 0.999998 28 54)" fill="#EDEDED"/>
<rect width="6" height="1" transform="matrix(1 9.04227e-09 -0.00191399 0.999998 104 54)" fill="#EDEDED"/>
<defs>
<linearGradient id="paint0_linear_141_133" x1="15.0543" y1="13.9783" x2="18.1668" y2="25.7551" gradientUnits="userSpaceOnUse">
<stop stop-color="#EDEDED"/>
<stop offset="1" stop-color="#171717"/>
</linearGradient>
<linearGradient id="paint1_linear_141_133" x1="15.0543" y1="13.9783" x2="18.1668" y2="25.7551" gradientUnits="userSpaceOnUse">
<stop stop-color="#EDEDED"/>
<stop offset="1" stop-color="#171717"/>
</linearGradient>
<linearGradient id="paint2_linear_141_133" x1="16.6479" y1="12.2177" x2="22.0043" y2="32.2052" gradientUnits="userSpaceOnUse">
<stop stop-color="#EDEDED"/>
<stop offset="1" stop-color="#171717"/>
</linearGradient>
</defs>
</svg>
